<svg display="none" version="1.0" xmlns="http://www.w3.org/2000/svg" width="512.000000pt" height="512.000000pt"
	preserveAspectRatio="xMidYMid meet">

	<symbol id="telegram" viewBox="0 0 512.000000 512.000000">
		<g transform="translate(0.000000,512.000000) scale(0.100000,-0.100000)">
			<path d="M2315 5109 c-800 -83 -1501 -518 -1927 -1196 -604 -961 -490 -2237
			274 -3068 425 -462 951 -737 1583 -827 119 -17 512 -16 635 1 622 86 1148 360
			1572 820 349 378 572 862 650 1406 17 118 17 512 0 630 -59 416 -191 769 -410
			1099 -92 140 -185 254 -315 385 -399 404 -893 653 -1462 737 -123 18 -478 26
			-600 13z m1385 -1564 c59 -56 60 -95 9 -470 -45 -334 -200 -1276 -255 -1545
			-20 -99 -59 -184 -101 -220 -30 -27 -41 -30 -101 -30 -49 0 -80 6 -117 24 -64
			29 -847 557 -899 605 -47 44 -69 91 -60 129 13 54 73 118 354 382 332 312 501
			477 525 513 22 34 6 67 -32 67 -33 0 -6 17 -648 -410 -599 -398 -613 -406
			-740 -403 -97 2 -483 107 -590 160 -110 55 -97 137 31 201 111 56 1428 622
			1842 791 602 247 709 276 782 206z" />
		</g>
	</symbol>

	<symbol id="vk" viewBox="0 0 512.000000 512.000000">
		<g transform="translate(0.000000,512.000000) scale(0.100000,-0.100000)">
			<path d="M2321 5110 c-868 -84 -1644 -610 -2037 -1382 -139 -273 -221 -536
			-266 -853 -20 -140 -17 -504 6 -660 39 -278 121 -541 247 -794 249 -502 647
			-900 1150 -1150 815 -406 1779 -350 2539 147 297 194 579 482 771 788 74 116
			184 342 234 478 51 138 110 376 131 531 23 157 26 521 6 660 -59 415 -191 769
			-410 1099 -92 140 -185 254 -315 385 -399 403 -895 653 -1462 737 -122 18
			-466 26 -594 14z m433 -1745 c22 -11 49 -33 60 -48 20 -27 21 -41 21 -360 1
			-351 7 -403 46 -431 27 -19 45 -12 97 38 118 112 272 354 364 573 28 68 62
			135 76 148 33 33 82 37 397 33 235 -3 274 -5 302 -21 45 -24 51 -56 25 -136
			-31 -96 -89 -188 -281 -449 -221 -300 -240 -337 -210 -395 6 -12 87 -98 179
			-192 160 -163 269 -295 311 -376 37 -73 17 -139 -52 -175 -40 -20 -212 -27
			-430 -17 -242 12 -255 18 -455 228 -157 166 -194 195 -242 195 -61 0 -79 -38
			-112 -230 -18 -106 -23 -117 -54 -146 -29 -28 -42 -32 -115 -39 -264 -23 -550
			55 -766 210 -221 158 -457 463 -690 894 -104 192 -265 539 -265 572 0 14 9 38
			21 53 l20 26 250 0 c148 0 268 -4 293 -11 63 -16 98 -58 151 -184 116 -273
			330 -591 411 -611 53 -13 75 25 96 165 12 85 4 395 -12 452 -13 46 -56 86
			-116 107 -30 11 -50 25 -52 35 -8 39 49 89 123 108 17 4 152 7 300 6 248 -2
			273 -4 309 -22z" />
		</g>
	</symbol>

	<symbol id="gefest-logo" viewBox="0 0 760.000000 760.000000">
		<g transform="translate(0.000000,768.000000) scale(0.100000,-0.100000)">
			<path d="M0 3840 l0 -3840 3840 0 3840 0 0 3840 0 3840 -3840 0 -3840 0 0
			-3840z m2857 3624 c-3 -3 -12 -4 -19 -1 -8 3 -5 6 6 6 11 1 17 -2 13 -5z
			m-152 -39 c-66 -18 -176 -53 -245 -78 -69 -25 -126 -44 -128 -42 -11 11 343
			134 428 148 72 12 52 2 -55 -28z m2302 19 c-3 -3 -12 -4 -19 -1 -8 3 -5 6 6 6
			11 1 17 -2 13 -5z m40 -10 c-3 -3 -12 -4 -19 -1 -8 3 -5 6 6 6 11 1 17 -2 13
			-5z m40 -10 c-3 -3 -12 -4 -19 -1 -8 3 -5 6 6 6 11 1 17 -2 13 -5z m-757 -34
			c398 -40 782 -156 1175 -355 105 -53 251 -141 413 -248 217 -144 266 -182 371
			-284 130 -127 138 -142 98 -188 l-22 -26 -45 42 c-117 109 -292 254 -386 319
			-12 8 -64 45 -115 81 -170 121 -518 303 -759 397 -140 55 -387 131 -491 151
			-203 38 -314 46 -639 46 -274 -1 -335 -4 -470 -24 -258 -37 -512 -97 -488
			-113 9 -6 5 -7 -9 -3 -57 16 -465 -151 -754 -307 -250 -136 -507 -308 -493
			-330 4 -6 2 -8 -3 -5 -6 4 -22 -2 -34 -14 -13 -11 -18 -17 -10 -13 9 5 12 3 7
			-4 -4 -7 -16 -12 -26 -12 -10 0 -22 -5 -26 -12 -5 -7 -2 -9 7 -4 8 5 -4 -8
			-26 -27 l-40 -35 -22 26 c-12 15 -22 29 -22 32 0 3 19 19 42 37 182 140 318
			240 409 302 60 40 106 77 102 82 -3 5 2 6 10 3 10 -4 16 -1 16 7 0 8 20 23 43
			33 23 11 53 27 67 36 14 9 34 20 45 23 11 3 85 33 165 67 268 113 697 247 900
			280 131 21 260 37 405 50 120 10 459 5 605 -10z m-2898 -12 c-7 -7 -12 -19
			-12 -26 0 -20 -53 -84 -166 -199 -51 -52 -99 -110 -105 -128 -11 -29 -14 -31
			-27 -19 -12 13 -16 12 -27 -3 -7 -10 -11 -20 -8 -23 3 -3 8 1 10 7 4 10 8 9
			19 -1 17 -17 18 -35 4 -72 -8 -20 -14 -24 -22 -16 -8 8 -6 15 6 27 23 23 20
			38 -4 25 -15 -8 -20 -8 -20 1 0 6 -7 8 -15 5 -10 -4 -20 3 -27 20 -13 28 -18
			23 167 186 33 29 98 94 145 144 47 50 87 89 89 87 3 -2 -1 -9 -7 -15z m5234
			-123 c82 -80 183 -171 224 -203 150 -115 179 -159 124 -184 -22 -10 -27 -9
			-35 5 -14 23 -28 21 -22 -3 6 -24 -12 -27 -21 -4 -3 9 -5 30 -5 47 1 24 3 26
			6 10 5 -25 18 -30 26 -10 8 22 -4 67 -19 67 -8 0 -14 -7 -14 -16 0 -11 -14 -4
			-47 22 -75 59 -80 62 -60 34 39 -56 57 -86 57 -95 -1 -5 -10 1 -22 15 l-21 25
			7 -35 c6 -30 5 -32 -5 -15 -7 11 -15 22 -19 25 -3 3 -14 16 -23 30 -12 17 -17
			20 -17 8 0 -8 7 -21 15 -28 8 -7 15 -23 15 -36 0 -31 11 -36 44 -18 37 18 38
			18 34 -8 -2 -13 -15 -29 -31 -36 -34 -17 -47 -5 -66 58 -7 25 -19 55 -27 68
			-13 20 -13 22 2 22 16 0 16 1 1 18 -23 25 -21 35 3 29 20 -5 30 17 11 25 -4 2
			-27 26 -51 53 -24 28 -83 92 -132 144 -67 70 -87 96 -76 102 12 8 4 13 -14 10
			-5 0 -8 4 -8 9 0 23 25 3 166 -135z m-2551 56 c39 -4 -29 -5 -150 -3 -121 3
			-222 6 -224 8 -7 7 300 2 374 -5z m-402 -8 c-13 -2 -33 -2 -45 0 -13 2 -3 4
			22 4 25 0 35 -2 23 -4z m-106 -9 c-3 -3 -12 -4 -19 -1 -8 3 -5 6 6 6 11 1 17
			-2 13 -5z m661 -1 c-10 -2 -28 -2 -40 0 -13 2 -5 4 17 4 22 1 32 -1 23 -4z
			m-845 -20 c-7 -2 -19 -2 -25 0 -7 3 -2 5 12 5 14 0 19 -2 13 -5z m-66 -9 c-3
			-3 -12 -4 -19 -1 -8 3 -5 6 6 6 11 1 17 -2 13 -5z m899 -20 c377 -39 747 -151
			1139 -344 311 -153 757 -466 908 -638 19 -20 18 -22 -13 -66 -17 -25 -33 -46
			-36 -46 -3 0 -42 39 -87 86 -92 97 -274 247 -289 238 -12 -7 -15 -5 92 -85 93
			-69 245 -211 262 -244 6 -11 -29 19 -78 67 -88 85 -181 165 -259 223 -22 17
			-40 35 -40 42 0 25 -524 339 -637 382 -42 16 -34 4 10 -14 48 -21 125 -66 119
			-71 -2 -2 -29 10 -59 26 -178 96 -451 197 -658 244 -272 60 -280 61 -640 59
			-184 -1 -366 -6 -405 -11 -58 -9 -48 -9 60 -4 206 10 571 6 675 -7 161 -20
			330 -58 493 -111 170 -55 446 -167 506 -204 66 -42 206 -110 220 -107 8 1 10
			-2 5 -11 -4 -7 -4 -10 1 -6 10 9 311 -195 396 -269 143 -125 269 -248 269
			-263 0 -19 -62 -80 -150 -146 -104 -78 -207 -182 -282 -282 -38 -51 -79 -97
			-91 -101 -12 -5 -52 -13 -90 -19 -103 -16 -180 -57 -276 -148 -101 -95 -103
			-97 -136 -84 -14 5 -51 10 -82 10 -45 0 -69 -7 -125 -37 -67 -36 -70 -37 -80
			-19 -29 52 -94 86 -163 86 -16 0 -59 -9 -95 -21 -36 -11 -87 -25 -115 -30 -41
			-8 -58 -18 -96 -59 -33 -36 -53 -50 -73 -50 -32 0 -74 20 -99 47 -16 19 -16
			24 -1 89 8 38 14 90 12 116 -3 44 -2 46 15 31 10 -10 17 -12 17 -5 0 7 -9 17
			-20 24 -19 12 -18 14 21 50 43 40 43 40 23 121 -8 33 8 36 24 5 9 -19 11 -20
			11 -5 1 10 -4 28 -10 39 -7 13 -7 23 -1 27 13 8 52 100 52 122 0 16 -8 19 -55
			19 -82 0 -134 30 -169 98 -39 75 -8 56 68 -41 35 -46 66 -48 95 -8 12 16 21
			38 21 50 0 36 -74 89 -107 77 -8 -3 -13 2 -13 15 0 38 -29 89 -62 109 -40 24
			-48 25 -48 3 0 -10 -9 0 -19 22 -21 46 -42 67 -68 65 -71 -4 -80 -6 -76 -17 7
			-19 -7 -15 -52 12 -62 38 -144 30 -184 -19 -12 -14 -10 -16 15 -14 16 1 37 9
			48 17 11 10 36 16 69 15 45 0 54 -4 79 -35 23 -27 26 -35 13 -37 -8 -2 -15 -8
			-15 -13 0 -5 -18 2 -40 16 -35 22 -70 33 -70 21 0 -2 -3 -13 -6 -23 -5 -15 -4
			-15 5 -3 9 13 11 13 11 0 -1 -20 -27 -53 -37 -47 -5 3 -28 -3 -52 -14 -33 -15
			-41 -23 -37 -37 4 -12 -5 -34 -23 -59 -23 -32 -37 -42 -65 -45 -20 -2 -36 0
			-36 6 0 11 -14 -2 -16 -15 -3 -20 -4 -21 -16 -11 -16 12 -87 52 -93 52 -3 0 0
			-9 7 -19 10 -17 7 -24 -20 -49 -44 -41 -41 -52 3 -13 41 36 50 39 33 11 -11
			-17 -9 -24 21 -50 34 -32 37 -46 7 -34 -9 3 -16 13 -16 21 0 13 -3 13 -15 3
			-8 -7 -15 -19 -15 -26 0 -8 -7 -14 -15 -14 -18 0 -19 -12 -4 -27 8 -8 5 -14
			-11 -23 -20 -11 -25 -9 -41 11 -23 30 -24 22 -3 -19 17 -35 29 -39 58 -17 16
			12 22 12 28 2 13 -20 9 -24 -15 -20 -17 4 -26 -2 -35 -22 -16 -34 -17 -29 20
			-64 25 -23 30 -33 21 -42 -23 -23 25 -100 58 -92 10 3 19 0 19 -6 0 -11 -13
			-15 -37 -12 -20 3 -27 -22 -9 -35 14 -9 15 -17 7 -31 -12 -24 -3 -99 15 -114
			8 -6 14 -16 14 -21 0 -5 11 -21 25 -36 l26 -27 -23 -19 c-32 -26 -87 -16 -151
			28 -60 41 -104 47 -132 16 -21 -23 -38 -21 -133 16 -35 13 -96 27 -137 31
			l-74 6 -54 61 c-75 85 -131 113 -259 131 -117 16 -112 12 -198 145 -83 128
			-156 188 -314 255 -81 35 -99 49 -220 164 -72 70 -149 141 -170 158 -22 18
			-38 34 -35 35 2 2 22 17 44 33 22 17 53 39 68 48 15 10 25 22 23 26 -7 10 14
			29 79 73 237 161 282 193 295 206 12 12 10 12 -10 -1 -14 -9 -45 -28 -70 -43
			-73 -43 -252 -165 -290 -197 -19 -16 -61 -54 -93 -85 l-58 -55 -25 24 c-39 36
			-48 57 -32 76 26 32 363 277 482 351 309 190 532 286 911 391 215 60 357 85
			565 101 85 7 157 14 159 16 12 11 387 2 517 -12z m-1009 0 c-3 -3 -12 -4 -19
			-1 -8 3 -5 6 6 6 11 1 17 -2 13 -5z m-122 -30 c-49 -13 -97 -22 -105 -21 -17
			4 145 46 175 45 11 0 -20 -11 -70 -24z m3505 12 c0 -2 3 -12 7 -21 5 -15 3
			-16 -15 -6 -25 13 -29 31 -7 31 8 0 15 -2 15 -4z m-5316 -93 c-24 -36 -53 -65
			-107 -102 -38 -26 -43 -34 -41 -63 3 -42 -15 -139 -28 -155 -15 -19 -28 -16
			-28 7 0 11 4 20 9 20 10 0 32 89 37 148 1 19 11 43 21 54 23 27 147 127 151
			123 2 -2 -4 -16 -14 -32z m1616 32 c0 -6 -133 -45 -138 -40 -2 2 25 13 59 23
			71 22 79 24 79 17z m3781 -71 c22 -25 22 -26 3 -16 -12 6 -24 18 -28 27 -8 21
			-3 19 25 -11z m-4031 -14 c-8 -5 -19 -10 -25 -10 -5 0 -3 5 5 10 8 5 20 10 25
			10 6 0 3 -5 -5 -10z m-1405 -57 c-26 -18 -32 -7 -9 18 12 14 20 17 23 8 2 -7
			-4 -18 -14 -26z m250 27 c3 -5 -1 -10 -10 -10 -9 0 -13 -5 -9 -11 4 -6 -1 -9
			-13 -7 -24 4 -53 -19 -52 -41 0 -12 4 -11 16 7 20 29 31 28 26 -2 -5 -24 -27
			-37 -49 -29 -17 6 -5 44 24 76 26 27 56 35 67 17z m5025 0 c13 -9 13 -12 -1
			-23 -21 -15 -31 -148 -13 -154 7 -2 10 5 7 20 -3 14 0 28 6 31 6 4 11 2 11 -5
			0 -8 4 -8 16 2 13 11 14 9 8 -17 -4 -16 -7 -33 -7 -39 0 -22 43 -101 67 -124
			46 -43 55 -122 17 -145 -16 -10 -50 16 -60 45 -5 14 -22 41 -38 60 -16 19 -42
			56 -57 82 -25 44 -27 52 -17 95 20 91 23 132 11 147 -9 10 -7 16 7 24 22 13
			25 13 43 1z m-5790 -49 c47 -17 96 -31 108 -31 15 0 22 -4 18 -12 -3 -7 -9
			-21 -12 -30 -4 -10 -10 -18 -14 -18 -4 0 -10 8 -12 18 -3 11 -27 23 -69 35
			-35 10 -82 32 -104 49 -44 34 -38 33 85 -11z m6650 29 c0 -5 -3 -9 -7 -8 -5 0
			-35 -11 -68 -26 -74 -34 -175 -67 -175 -56 0 4 12 12 28 18 15 5 68 26 117 45
			101 40 105 41 105 27z m-824 -25 c8 -32 -1 -55 -22 -55 -11 0 -14 5 -10 16 3
			9 6 27 6 40 0 32 18 31 26 -1z m-5578 -12 c-8 -10 -18 -26 -21 -35 -8 -22 -53
			-52 -67 -43 -5 3 -10 17 -10 30 0 25 20 40 69 56 40 12 45 10 29 -8z m6132
			-47 c0 -18 -66 -60 -80 -51 -15 9 -12 31 6 49 20 20 74 21 74 2z m-5645 -61
			c23 -60 15 -86 -52 -156 l-56 -59 -38 31 c-46 36 -48 52 -14 75 21 14 31 15
			51 5 33 -15 37 -14 30 4 -3 8 2 44 11 80 20 81 43 88 68 20z m-275 16 c0 -13
			-26 -32 -33 -24 -14 13 -6 33 13 33 11 0 20 -4 20 -9z m840 -6 c0 -7 -109 -78
			-174 -114 -32 -17 -79 -46 -104 -63 -25 -17 -42 -26 -38 -20 9 15 291 199 309
			201 4 1 7 -1 7 -4z m-826 -30 c4 -10 -1 -15 -14 -15 -20 0 -26 11 -13 23 10
			11 20 8 27 -8z m-142 -41 c-4 -22 -6 -24 -14 -10 -9 16 -3 36 11 36 5 0 6 -12
			3 -26z m186 -3 c3 -8 -1 -12 -9 -9 -7 2 -15 10 -17 17 -3 8 1 12 9 9 7 -2 15
			-10 17 -17z m66 5 c-3 -7 -16 -13 -30 -13 -28 0 -32 13 -6 20 32 9 41 7 36 -7z
			m5520 -8 c-12 -19 -15 -66 -4 -73 16 -10 12 -35 -6 -35 -9 0 -14 -7 -13 -17 5
			-45 -30 -69 -60 -40 -11 10 -12 7 -7 -15 5 -21 3 -26 -8 -22 -9 3 -21 -5 -31
			-20 -12 -17 -26 -26 -44 -26 -14 0 -21 4 -15 8 11 7 26 48 38 105 4 17 13 27
			25 27 10 0 24 7 31 15 14 17 50 20 50 5 0 -5 5 -10 11 -10 5 0 9 8 8 18 -5 53
			2 92 17 92 9 0 12 -5 8 -12z m-197 -14 c-3 -3 -12 -4 -19 -1 -8 3 -5 6 6 6 11
			1 17 -2 13 -5z m28 -14 c3 -5 1 -10 -4 -10 -6 0 -11 5 -11 10 0 6 2 10 4 10 3
			0 8 -4 11 -10z m-5496 -19 c42 -22 71 -59 71 -90 0 -21 -44 -51 -74 -51 -17 0
			-59 87 -52 107 3 7 -3 17 -12 23 -16 11 -16 11 1 6 11 -3 17 0 17 9 0 19 3 19
			49 -4z m4232 -41 c38 -23 69 -43 69 -45 0 -5 -133 64 -144 76 -21 19 8 7 75
			-31z m1454 29 c11 -17 -1 -21 -15 -4 -8 9 -8 15 -2 15 6 0 14 -5 17 -11z m75
			-19 c0 -5 -5 -10 -11 -10 -5 0 -7 5 -4 10 3 6 8 10 11 10 2 0 4 -4 4 -10z
			m-5624 -75 c26 -20 63 -61 83 -93 60 -92 182 -232 278 -317 48 -43 135 -125
			193 -181 90 -88 117 -108 185 -139 211 -93 284 -158 372 -328 36 -69 39 -90
			18 -127 -18 -31 -19 -53 -3 -48 7 3 17 24 23 49 9 34 16 44 31 42 200 -20 217
			-23 257 -47 96 -57 185 -174 112 -146 -33 12 -32 2 4 -57 36 -60 74 -149 69
			-163 -3 -10 -143 55 -218 102 -31 19 -33 20 -20 3 14 -17 13 -18 -5 -11 -11 5
			-28 8 -38 8 -10 0 -15 4 -11 10 5 7 2 9 -8 6 -16 -7 -85 31 -139 75 -21 18
			-29 31 -21 34 6 2 12 9 12 15 0 6 -7 7 -16 4 -8 -3 -12 -2 -9 4 3 5 1 19 -5
			30 -9 17 -14 19 -25 10 -11 -9 -15 -7 -21 14 -3 15 -1 32 5 40 16 19 0 28 -20
			10 -15 -13 -21 -13 -50 -1 -19 8 -50 31 -69 51 -26 26 -44 36 -70 36 -39 2
			-57 11 -159 87 -38 29 -67 45 -64 36 5 -11 0 -10 -15 5 -12 12 -27 22 -33 22
			-7 0 -9 9 -5 24 4 15 0 28 -10 37 -20 16 -44 63 -44 85 0 9 -11 32 -25 49 -13
			18 -21 36 -17 40 4 5 -1 5 -10 2 -12 -4 -18 -1 -18 8 0 8 -4 15 -10 15 -5 0
			-10 5 -10 11 0 8 5 7 15 -1 9 -7 18 -10 22 -6 14 13 -81 71 -103 62 -7 -3 -16
			-1 -19 4 -3 5 -12 7 -20 3 -10 -3 -15 1 -15 13 0 14 -2 16 -9 6 -6 -10 -31 9
			-97 75 -49 48 -100 104 -114 123 -14 19 -44 55 -67 80 -24 24 -43 50 -43 57 0
			7 -4 13 -8 13 -9 0 -52 81 -52 99 0 6 -3 11 -7 11 -11 0 -45 61 -38 68 3 3 5
			0 5 -6 0 -7 5 -12 10 -12 6 0 10 9 10 20 0 12 -7 20 -16 20 -11 0 -14 5 -10
			16 3 9 6 20 6 25 0 6 5 7 10 4 6 -3 10 -15 10 -26 0 -21 1 -22 24 -13 14 5 13
			9 -4 31 -18 23 -28 63 -15 63 3 0 26 -16 51 -35z m5261 -104 c3 -11 16 -22 30
			-25 19 -5 23 -11 17 -29 -5 -17 2 -13 30 16 19 22 41 37 48 34 20 -7 11 -58
			-12 -74 -12 -8 -25 -25 -30 -37 -9 -20 -9 -21 -9 0 -1 11 4 25 11 32 9 9 9 12
			0 12 -7 0 -12 -4 -12 -8 0 -4 -28 -39 -62 -77 -34 -39 -88 -105 -119 -149 -60
			-81 -153 -183 -185 -202 -10 -6 -20 -16 -22 -24 -3 -9 2 -8 19 3 33 23 76 22
			89 -3 8 -15 8 -20 -2 -20 -10 0 -10 -2 1 -9 9 -6 12 -21 9 -44 -2 -20 0 -33 4
			-31 22 14 3 -17 -29 -48 -21 -19 -57 -55 -79 -79 -84 -89 -167 -159 -189 -159
			-23 0 -95 -65 -95 -86 0 -9 -10 -11 -34 -7 -19 3 -36 1 -40 -6 -4 -6 -16 -11
			-28 -11 -11 0 -36 -13 -54 -30 -20 -17 -40 -27 -49 -24 -11 5 -14 2 -8 -12 6
			-18 6 -18 -15 0 -26 23 -27 19 -6 -24 16 -32 16 -35 -7 -77 -13 -25 -41 -60
			-61 -79 -61 -54 -148 -83 -148 -48 0 11 -5 14 -17 9 -19 -7 -152 -40 -218 -55
			-23 -5 -65 -18 -94 -30 -30 -11 -56 -18 -59 -16 -3 3 3 27 13 53 13 37 46 76
			139 169 103 104 130 125 181 144 61 23 213 42 221 28 3 -4 18 16 33 45 74 137
			89 160 126 198 22 23 65 60 95 82 95 70 218 176 250 215 16 20 56 71 88 113
			31 42 101 134 155 205 69 91 97 136 97 156 0 32 19 38 27 9z m-806 -42 c33
			-22 58 -43 56 -46 -4 -4 -91 53 -121 79 -27 23 12 3 65 -33z m838 -211 c-3
			-52 -8 -65 -21 -47 -6 10 -7 7 -3 -9 4 -14 -1 -32 -14 -51 -12 -16 -21 -36
			-21 -43 0 -8 -9 -23 -21 -34 -12 -10 -28 -32 -36 -47 -8 -16 -17 -26 -20 -23
			-4 3 -12 1 -20 -6 -18 -15 -27 -4 -14 19 6 10 27 57 47 106 36 86 95 177 115
			177 5 0 9 -19 8 -42z m-2569 -48 c10 -6 31 -33 46 -60 16 -29 34 -50 44 -50
			19 0 40 -19 40 -37 0 -9 -8 -9 -39 2 -41 14 -51 12 -51 -12 0 -8 -6 -21 -14
			-29 -24 -23 -26 7 -3 38 14 18 18 34 13 53 -8 33 -52 75 -77 75 -21 0 -25 16
			-6 23 19 8 27 8 47 -3z m-2700 -59 c-1 -7 -31 -46 -141 -182 -41 -52 -98 -125
			-125 -162 -27 -38 -71 -99 -98 -135 -48 -66 -117 -185 -115 -200 3 -19 -2 -33
			-11 -27 -5 3 -10 -1 -10 -10 0 -8 -11 -38 -25 -66 -65 -128 -166 -377 -203
			-501 -35 -115 -77 -300 -121 -533 -6 -27 -15 -94 -22 -147 -9 -75 -14 -95 -25
			-91 -8 3 -14 -1 -14 -11 0 -9 7 -16 15 -16 12 0 14 -10 10 -52 -4 -41 -11
			-229 -15 -366 0 -8 -5 -10 -12 -6 -10 6 -10 4 0 -7 6 -7 13 -27 14 -43 1 -25
			2 -21 8 14 7 44 7 43 11 -25 2 -38 4 -90 4 -115 1 -25 4 -52 7 -60 4 -8 9 -35
			12 -60 19 -145 97 -488 136 -598 10 -28 16 -60 13 -71 -3 -11 2 -21 11 -24 9
			-4 16 -15 16 -26 0 -11 5 -23 10 -26 6 -3 10 -16 10 -29 0 -12 5 -27 11 -33 9
			-9 8 -20 -5 -45 l-17 -33 7 36 c4 24 2 39 -7 44 -9 6 -11 2 -7 -13 4 -12 3
			-24 -2 -27 -4 -3 -11 6 -14 20 -4 14 -13 25 -20 25 -14 0 -33 43 -71 160 -10
			30 -21 65 -26 78 -5 13 -9 36 -9 52 0 17 -4 30 -10 30 -5 0 -10 7 -10 15 0 8
			5 15 10 15 6 0 10 5 10 10 0 6 -6 10 -14 10 -7 0 -16 10 -20 23 -9 33 -7 49 4
			42 6 -3 10 1 10 9 0 9 -6 16 -13 16 -18 0 -37 87 -31 136 3 27 2 33 -4 20 -8
			-18 -9 -18 -15 -3 -4 10 -8 45 -11 80 -2 38 -1 47 3 22 7 -47 22 -33 17 16 -5
			48 -17 74 -26 58 -9 -14 -18 54 -24 183 -3 48 -7 92 -11 97 -12 21 -6 457 9
			586 25 210 39 295 48 295 5 0 7 4 4 9 -14 21 86 410 149 585 87 241 179 426
			319 645 24 36 50 72 59 80 20 16 23 36 5 24 -15 -8 5 23 69 114 24 34 49 65
			56 69 6 5 1 -8 -13 -27 -76 -102 -102 -140 -98 -144 2 -3 22 19 43 48 21 28
			90 106 154 173 113 117 116 120 134 101 9 -11 17 -22 17 -26z m2526 -40 c-4
			-6 -17 -11 -28 -11 -21 0 -21 1 -3 20 19 21 44 13 31 -9z m2833 -96 c118 -121
			220 -293 359 -605 87 -194 117 -274 157 -412 46 -162 126 -529 129 -594 2 -28
			6 -56 10 -63 4 -6 6 -24 5 -39 -2 -15 1 -33 5 -41 14 -22 21 -458 8 -446 -7 6
			-12 80 -14 192 -2 100 -6 174 -10 165 -3 -9 -5 2 -4 24 2 23 6 46 10 53 4 6 3
			11 -3 11 -5 0 -11 -6 -14 -12 -2 -7 -8 23 -12 67 -4 44 -13 94 -21 110 l-14
			30 6 -35 c3 -19 8 -62 10 -95 3 -33 9 -98 13 -145 8 -88 6 -105 -9 -80 -8 13
			-10 12 -10 -2 0 -9 7 -23 15 -32 8 -8 15 -21 15 -28 0 -8 -5 -6 -11 5 -15 26
			-27 12 -24 -31 2 -34 2 -35 -5 -7 l-7 30 -2 -37 c0 -20 4 -40 10 -44 6 -3 9
			-15 6 -25 -3 -11 -1 -19 4 -19 5 0 9 -5 9 -11 0 -5 -4 -7 -10 -4 -6 4 -10 -12
			-9 -42 0 -34 3 -42 8 -28 10 26 21 -56 22 -172 1 -46 5 -83 10 -83 5 0 6 -14
			2 -32 -5 -24 -3 -29 7 -23 9 5 11 24 7 64 -4 37 -3 48 3 31 7 -22 8 -20 7 12
			0 21 3 41 7 45 13 13 -28 -448 -54 -612 -18 -107 -53 -234 -63 -228 -6 4 -8 0
			-5 -9 6 -14 -16 -109 -42 -188 -32 -93 -95 -247 -107 -261 -7 -9 -11 -18 -8
			-20 5 -6 -101 -229 -109 -229 -8 0 10 44 36 90 20 35 21 42 8 50 -11 7 -12 10
			-2 10 9 0 11 8 8 23 -3 12 -3 17 0 10 7 -17 34 -4 34 16 0 14 -2 14 -11 1 -8
			-12 -9 -11 -6 5 2 11 8 19 13 18 5 -1 10 9 9 23 0 13 -3 23 -6 22 -3 -2 -14 5
			-23 15 -18 17 -17 21 14 102 19 50 37 82 43 78 6 -4 8 0 4 10 -8 20 8 67 23
			67 5 0 10 -7 10 -15 0 -8 -4 -15 -10 -15 -5 0 -10 -16 -10 -35 0 -20 -7 -52
			-15 -72 -8 -20 -13 -38 -10 -41 8 -9 43 80 61 158 10 41 22 81 28 89 6 7 11
			19 12 25 0 6 2 17 2 24 1 7 7 10 14 6 8 -5 9 0 5 16 -3 13 1 39 9 59 17 40 36
			139 36 186 0 25 1 27 8 10 4 -11 6 -31 4 -45 -2 -14 -1 -19 2 -11 5 11 8 11
			15 0 6 -10 9 -7 9 12 0 14 -4 29 -9 35 -6 5 -4 30 5 64 8 30 13 59 11 65 -2 5
			-9 -12 -15 -38 -14 -53 -28 -65 -17 -14 3 17 11 63 16 100 5 38 14 87 20 110
			10 36 13 39 20 22 7 -18 8 -18 8 5 0 14 -8 36 -19 50 -11 14 -20 39 -20 55 0
			23 -3 27 -10 15 -7 -10 -8 7 -4 55 5 44 13 74 22 81 13 9 13 12 -1 17 -12 4
			-15 21 -14 79 1 40 -2 131 -7 201 -5 80 -4 133 2 140 12 14 -9 286 -32 422
			-54 324 -133 616 -216 800 -12 28 -33 74 -46 103 -13 29 -24 55 -24 58 0 15
			-184 326 -266 450 -52 77 -94 146 -94 153 0 7 7 26 16 44 l17 32 9 -25 c5 -14
			31 -47 57 -75z m-5273 0 c4 -10 17 -28 30 -38 51 -40 49 -48 -33 -143 -66 -77
			-137 -179 -328 -474 -52 -80 -75 -124 -75 -145 0 -9 -4 -13 -10 -10 -5 3 -10
			-3 -10 -14 0 -11 -7 -26 -15 -35 -8 -8 -15 -19 -15 -24 0 -6 -3 -12 -8 -14 -4
			-1 -19 -32 -34 -68 -54 -132 -84 -235 -133 -450 -13 -58 -30 -132 -39 -165 -9
			-32 -16 -72 -16 -88 0 -22 -4 -28 -15 -23 -9 3 -15 0 -15 -8 0 -8 5 -16 12
			-18 6 -2 9 -12 5 -21 -4 -11 -12 -14 -23 -10 -14 5 -16 3 -11 -11 4 -10 7 -24
			7 -32 0 -9 5 -12 10 -9 5 3 10 2 10 -4 0 -5 -4 -12 -9 -15 -10 -7 -7 -620 3
			-686 6 -32 5 -41 -3 -30 -7 10 -8 -4 -4 -50 3 -36 6 -81 7 -100 0 -19 9 -43
			19 -52 23 -24 22 -48 -3 -48 -12 0 -20 -7 -20 -17 0 -15 2 -15 9 -4 5 8 15 12
			23 9 16 -7 44 -229 32 -250 -5 -7 -2 -9 8 -5 12 4 17 -2 20 -23 2 -16 1 -27
			-4 -24 -8 5 -11 -7 -13 -63 0 -17 3 -29 8 -26 4 3 5 19 2 35 -5 21 -4 28 4 24
			15 -9 14 -42 -3 -89 -15 -43 -20 -36 -31 37 -4 25 -11 46 -16 46 -5 0 -9 13
			-9 29 0 17 -4 32 -9 36 -5 3 -12 19 -16 35 -4 17 -11 30 -16 30 -12 0 -11 -37
			1 -45 8 -5 8 -11 0 -20 -8 -9 -8 -24 -1 -47 l9 -33 1 34 c1 19 4 31 8 28 3 -4
			6 -20 5 -37 0 -16 3 -32 8 -35 5 -3 6 -13 3 -22 -4 -10 -2 -14 5 -9 7 4 10 -4
			10 -21 -1 -16 9 -47 21 -70 28 -55 28 -87 1 -80 -23 6 -24 3 -10 -24 6 -10 21
			-19 34 -19 13 0 27 -7 30 -16 9 -24 -3 -32 -15 -11 -6 9 -14 17 -19 17 -13 0
			-13 -47 0 -55 6 -3 10 -13 10 -21 0 -8 -4 -13 -9 -10 -5 4 -7 -4 -5 -16 3 -13
			-4 -5 -16 16 -11 23 -18 49 -14 60 4 15 3 17 -4 8 -7 -11 -11 -7 -16 13 -4 15
			-5 30 -2 33 3 3 -1 10 -9 16 -16 12 -86 242 -76 251 3 3 0 9 -6 13 -28 18
			-111 542 -128 802 -11 191 33 692 65 718 8 8 9 11 2 7 -16 -8 -15 -1 8 108 46
			211 108 423 180 617 89 241 374 691 563 888 l41 42 23 -27 c12 -16 25 -37 29
			-48z m2351 25 c-3 -11 -1 -23 4 -26 15 -9 0 -23 -54 -50 -29 -15 -59 -31 -67
			-38 -9 -6 8 11 37 37 29 27 53 54 53 61 0 11 19 36 28 36 2 0 2 -9 -1 -20z
			m378 -19 c-6 -5 -25 10 -25 20 0 5 6 4 14 -3 8 -7 12 -15 11 -17z m-138 -14
			c3 -4 14 -7 24 -7 9 0 20 -7 23 -16 3 -8 2 -12 -4 -9 -6 3 -10 2 -10 -3 0 -6
			7 -13 16 -16 9 -3 14 -12 11 -20 -3 -7 3 -27 14 -45 22 -36 20 -37 -24 -14
			-22 11 -53 16 -101 14 -58 -1 -72 -5 -84 -23 -13 -18 -17 -19 -26 -5 -15 20
			-92 40 -125 32 l-26 -6 30 25 c35 29 85 50 85 35 0 -5 8 -9 18 -8 10 0 12 3 5
			6 -7 2 -13 9 -13 14 0 6 5 7 10 4 6 -3 13 1 16 9 3 9 12 16 20 16 8 0 14 4 14
			9 0 17 111 24 127 8z m2605 -42 c5 -11 -2 -6 -16 10 -14 17 -25 35 -25 40 0
			11 25 -20 41 -50z m-2363 18 c22 -14 24 -14 18 1 -8 21 2 20 25 -1 19 -17 26
			-69 8 -58 -6 4 -7 11 -4 17 4 6 -1 8 -14 4 -11 -4 -23 -2 -26 3 -11 17 -70 43
			-74 31 -2 -5 -8 -8 -13 -5 -5 4 -3 12 4 20 13 15 39 11 76 -12z m-2475 -44
			c-8 -14 -24 -10 -24 6 0 9 6 12 15 9 8 -4 12 -10 9 -15z m4836 -51 c33 -40 58
			-79 55 -85 -2 -7 1 -12 7 -10 23 5 193 -305 276 -503 45 -109 115 -339 137
			-451 12 -66 12 -84 0 -144 -8 -38 -13 -70 -11 -72 5 -6 26 57 26 78 0 34 19
			20 26 -18 4 -21 13 -55 20 -77 20 -56 51 -251 65 -401 15 -167 5 -635 -14
			-647 -6 -4 -7 -8 -1 -8 16 0 -10 -256 -45 -424 -17 -82 -33 -151 -36 -154 -7
			-8 -6 17 6 68 5 25 11 72 13 105 l4 60 -10 -50 c-5 -27 -13 -66 -18 -85 -7
			-31 -8 -32 -9 -8 -1 15 -6 30 -13 34 -8 5 -9 -5 -5 -36 3 -24 2 -38 -2 -31 -6
			10 -10 10 -16 1 -4 -6 1 -20 11 -31 9 -10 14 -22 11 -26 -4 -3 -7 -2 -7 4 0 6
			-6 13 -14 16 -10 4 -12 0 -9 -14 3 -10 10 -19 15 -19 5 0 8 -7 6 -16 -2 -8 -7
			-14 -12 -14 -10 2 -26 -20 -26 -35 0 -5 5 -3 11 5 8 11 9 7 5 -19 -3 -18 -6
			-43 -6 -55 0 -16 -2 -18 -9 -7 -7 11 -12 4 -21 -27 -6 -23 -13 -42 -16 -42 -7
			0 6 97 18 140 6 19 14 55 18 80 5 25 20 106 34 180 15 74 28 155 31 180 2 25
			7 73 11 108 4 36 2 62 -3 62 -10 0 -31 -114 -39 -203 -4 -54 -32 -220 -41
			-247 -3 -8 -7 -32 -8 -53 -2 -22 -7 -42 -11 -45 -3 -4 -4 10 0 31 5 29 4 37
			-4 32 -8 -5 -10 -1 -6 11 3 11 1 26 -4 34 -7 11 -10 1 -11 -35 -4 -110 -6
			-131 -13 -163 -4 -18 -11 -30 -14 -28 -4 2 -8 -10 -9 -26 -2 -29 -30 -84 -39
			-76 -4 4 7 47 22 82 5 13 4 17 -4 12 -6 -3 -14 -1 -18 5 -4 7 -3 9 3 6 6 -4
			10 7 11 26 2 73 2 74 22 37 23 -42 26 -36 5 13 -13 32 -13 46 -1 114 12 64 15
			71 16 38 2 -38 2 -38 10 -12 5 15 4 42 -1 62 -6 20 -8 39 -5 44 8 13 48 280
			48 326 1 27 2 31 5 13 5 -31 28 -55 38 -38 3 5 0 10 -8 10 -11 0 -16 20 -22
			75 -3 41 -4 79 0 85 4 6 6 62 6 125 -1 86 2 115 11 115 9 0 8 3 -2 10 -13 8
			-13 10 2 10 10 0 20 10 24 25 3 14 10 23 14 20 11 -7 18 -65 8 -71 -12 -8 0
			-24 19 -24 10 0 13 6 9 16 -4 9 -1 23 5 30 9 11 8 14 -1 14 -6 0 -10 6 -7 13
			2 6 10 12 18 12 23 0 23 42 -1 50 -32 10 -88 -13 -92 -38 -2 -12 -7 34 -11
			103 -9 149 -34 308 -87 565 -47 225 -62 280 -129 462 -27 76 -63 176 -79 223
			-53 152 -136 313 -236 463 -25 38 -46 73 -46 79 0 16 70 128 80 128 5 0 37
			-33 70 -72z m-214 35 c-10 -10 -19 5 -10 18 6 11 8 11 12 0 2 -7 1 -15 -2 -18z
			m-2897 -19 c-6 -8 -16 -14 -21 -14 -7 0 -6 5 1 13 6 8 8 17 4 21 -4 4 0 4 10
			0 14 -5 15 -9 6 -20z m3423 -26 c36 -54 66 -107 55 -97 -4 3 -24 32 -45 65
			-51 79 -54 84 -49 84 2 0 20 -24 39 -52z m-3382 7 c-7 -8 -20 -15 -29 -15 -12
			0 -10 5 9 20 28 21 39 18 20 -5z m-1942 -75 c50 -49 98 -102 106 -117 8 -16
			48 -61 90 -101 41 -39 89 -93 107 -120 53 -78 226 -236 357 -326 43 -29 144
			-137 234 -249 82 -102 164 -158 281 -192 78 -23 99 -46 125 -144 12 -46 35
			-113 51 -149 16 -37 32 -92 36 -122 4 -30 16 -77 27 -105 10 -27 35 -95 54
			-150 41 -115 87 -202 142 -269 41 -50 65 -112 81 -216 15 -92 14 -122 -9 -182
			-32 -85 -31 -84 -85 -64 -38 15 -51 16 -74 6 -81 -33 -108 -121 -66 -216 24
			-55 25 -104 2 -104 -19 0 -47 -33 -47 -55 0 -12 11 -34 24 -50 21 -25 36 -85
			37 -149 0 -10 7 -28 15 -40 13 -21 11 -26 -40 -77 -75 -78 -78 -86 -55 -138
			10 -23 28 -55 38 -70 13 -17 18 -36 14 -50 -4 -16 2 -30 22 -51 l28 -29 -17
			-42 c-10 -24 -26 -55 -37 -70 -57 -80 -74 -174 -44 -246 8 -19 41 -64 74 -98
			l59 -63 -4 -136 c-2 -92 -8 -147 -19 -172 -16 -38 -18 -39 -84 -18 -35 10 -19
			-10 23 -30 28 -13 33 -20 28 -39 -5 -18 -7 -19 -10 -4 -2 9 -12 17 -22 17 -10
			0 -20 3 -22 8 -1 4 -38 24 -81 46 -43 21 -83 44 -90 50 -7 6 -32 19 -57 29
			-73 30 -154 71 -162 82 -4 5 -11 10 -15 10 -4 0 -24 15 -43 33 -42 40 -87 65
			-103 58 -8 -3 -6 -5 3 -6 8 0 31 -14 50 -30 27 -24 30 -30 15 -30 -10 0 -29
			10 -41 21 -16 15 -28 19 -41 14 -16 -7 -15 -9 7 -13 14 -2 28 -9 32 -16 11
			-17 10 -66 -2 -66 -5 0 -10 14 -10 30 0 20 -5 30 -15 30 -9 0 -15 -9 -15 -25
			l0 -25 -120 0 -120 0 0 -30 c0 -28 -2 -30 -40 -30 -38 0 -40 2 -40 30 0 28 -2
			30 -40 30 -29 0 -40 -4 -40 -15 0 -11 -11 -15 -40 -15 -29 0 -40 4 -40 15 0
			11 -11 15 -40 15 -29 0 -40 -4 -40 -15 0 -10 -9 -14 -25 -13 -22 2 -25 7 -25
			40 0 27 -4 38 -15 38 -8 0 -15 -7 -15 -15 0 -9 -6 -12 -15 -9 -8 4 -15 10 -15
			15 0 5 7 9 15 9 8 0 15 7 15 15 0 10 -10 15 -34 15 -19 0 -37 6 -39 13 -3 6
			-6 -2 -6 -19 -1 -24 4 -33 20 -37 23 -6 21 -30 -2 -35 -16 -3 -48 53 -79 140
			-10 29 -19 45 -19 36 -1 -14 -10 -18 -39 -18 -32 0 -39 4 -49 30 -8 21 -8 30
			1 34 6 3 2 4 -9 3 -13 -2 -19 -9 -17 -20 2 -9 -2 -17 -8 -17 -5 0 -10 5 -10
			10 0 6 -7 10 -15 10 -8 0 -15 5 -15 12 0 6 -3 8 -7 4 -4 -4 6 -18 22 -30 20
			-17 32 -20 37 -13 13 21 19 0 7 -29 l-11 -29 -14 28 c-8 15 -18 27 -22 27 -4
			0 -16 13 -25 30 -10 16 -25 37 -34 46 -15 15 -15 17 0 26 9 5 17 14 17 21 0 8
			-3 9 -8 1 -10 -15 -42 -25 -42 -14 0 5 -13 23 -30 40 -16 17 -30 36 -30 43 0
			7 -9 19 -19 26 -11 8 -17 21 -13 30 3 9 1 13 -3 8 -5 -4 -19 11 -33 34 -23 39
			-30 57 -31 88 -1 8 -4 11 -7 8 -4 -4 -18 14 -30 40 -13 26 -31 54 -39 63 -8 9
			-15 22 -15 28 0 7 -4 12 -8 12 -11 0 -40 68 -41 95 -1 24 -10 90 -17 124 -4
			17 -10 22 -24 18 -13 -3 -21 1 -25 14 -4 11 -11 17 -16 14 -5 -4 -9 3 -9 14 0
			11 -5 23 -11 27 -6 3 -9 15 -6 25 3 11 2 17 -3 14 -12 -7 -33 23 -24 36 4 7 3
			9 -3 6 -12 -8 -26 50 -16 66 3 5 2 7 -4 4 -6 -4 -17 18 -27 51 -47 162 -66
			236 -66 252 0 10 -4 20 -10 22 -9 3 -56 247 -48 252 1 1 47 24 100 50 53 26
			102 54 109 62 14 17 -30 0 -143 -57 l-78 -39 -1 42 c0 24 -5 52 -10 63 -6 13
			-7 -11 -4 -70 3 -78 3 -83 -5 -35 -10 60 -31 508 -25 537 5 24 15 321 10 308
			-2 -5 -6 -36 -10 -68 -4 -32 -9 -57 -11 -54 -7 6 15 187 41 342 13 77 42 201
			65 275 23 74 53 171 66 215 23 73 52 157 74 210 41 99 66 151 72 153 4 2 8 13
			8 23 0 11 5 17 10 14 6 -3 10 0 10 8 0 27 111 201 224 352 51 69 196 245 201
			245 1 0 43 -40 93 -90z m2297 -6 c9 -14 20 -22 24 -20 5 3 16 -3 26 -14 10
			-11 28 -20 39 -19 20 0 20 1 2 8 -27 11 -7 21 45 23 33 1 46 -3 61 -21 18 -23
			18 -24 -9 -56 -16 -19 -32 -34 -36 -34 -5 -1 -14 -7 -22 -14 -11 -12 1 -28 70
			-100 46 -47 91 -100 100 -117 18 -34 13 -66 -7 -54 -10 6 -10 5 -1 -7 7 -8 10
			-25 7 -36 -6 -23 -7 -22 -61 5 -33 18 -35 15 -13 -23 15 -27 16 -35 6 -35 -7
			0 -19 7 -26 15 -24 29 -31 15 -10 -20 12 -19 17 -35 12 -35 -5 0 -12 7 -16 15
			-3 8 -10 15 -17 15 -6 0 -8 -7 -5 -16 3 -8 2 -12 -4 -9 -6 3 -10 12 -10 18 0
			7 -11 35 -25 62 l-24 50 -1 -46 c0 -51 -29 -135 -38 -109 -11 35 -24 40 -42
			17 -15 -17 -21 -19 -31 -10 -9 9 -8 17 5 37 10 16 12 26 5 26 -6 0 -9 9 -6 20
			3 11 2 20 -1 20 -10 -1 -38 -42 -46 -68 -7 -22 -9 -22 -25 -8 -10 9 -25 16
			-33 16 -9 0 -21 7 -28 15 -23 27 -29 15 -14 -27 22 -64 9 -57 -24 14 -35 74
			-44 106 -31 114 12 7 12 24 0 24 -5 0 -14 -13 -21 -29 -16 -41 -49 -69 -59
			-53 -4 7 -18 14 -29 15 -12 1 -22 5 -22 9 0 4 -7 8 -15 8 -8 0 -15 7 -15 15 0
			18 -12 19 -28 3 -7 -7 -12 -8 -12 -2 0 6 24 35 53 65 29 29 58 66 64 81 7 15
			21 32 33 38 17 9 20 8 21 -7 0 -17 1 -16 12 1 7 11 29 36 49 56 43 42 98 119
			98 138 0 7 7 28 14 47 17 39 35 39 61 -1z m111 -6 c-10 -6 -20 -7 -24 -3 -9 8
			20 25 31 18 5 -3 2 -10 -7 -15z m-2186 -5 c0 -9 3 -14 6 -10 11 11 34 -21 28
			-37 -9 -25 -21 -19 -35 17 -7 17 -14 35 -17 40 -2 4 1 7 7 7 6 0 11 -7 11 -17z
			m4667 -106 c60 -106 99 -161 52 -72 -18 33 -38 71 -47 84 -8 13 -10 21 -4 17
			31 -19 202 -343 233 -441 7 -22 21 -58 31 -81 10 -22 18 -45 18 -51 0 -6 9
			-31 21 -57 16 -38 18 -53 10 -79 -6 -18 -20 -79 -31 -137 -23 -115 -70 -266
			-106 -345 -33 -73 -54 -125 -49 -125 10 0 97 186 120 257 14 43 35 127 45 188
			11 60 24 124 29 140 l8 30 13 -30 c25 -63 61 -216 85 -370 15 -88 30 -178 35
			-200 44 -204 61 -771 28 -935 -9 -47 -20 -112 -23 -145 -6 -49 -38 -223 -49
			-260 -2 -5 -6 -27 -11 -47 -4 -21 -11 -38 -15 -38 -4 0 -6 -12 -3 -27 3 -25 2
			-26 -7 -8 -9 17 -10 16 -6 -10 2 -16 -3 -46 -12 -65 -9 -19 -16 -39 -17 -45
			-8 -60 -20 -80 -47 -76 -4 0 -5 -6 -1 -15 5 -13 8 -13 15 -2 6 9 7 5 2 -12 -9
			-33 -35 -91 -29 -65 2 11 0 36 -4 55 -10 38 -12 29 -16 -52 -2 -26 1 -46 5
			-43 4 2 -1 -21 -12 -53 -30 -92 -141 -367 -150 -370 -4 -2 -8 -13 -8 -23 0
			-27 -19 -61 -42 -78 -11 -7 -17 -20 -14 -28 7 -16 -12 -58 -21 -49 -4 3 -15
			-2 -26 -11 -20 -17 -20 -17 -14 2 7 20 7 20 -8 1 -8 -11 -15 -25 -14 -30 0 -6
			3 -5 6 2 2 6 9 9 15 6 5 -3 16 2 24 12 14 18 15 18 6 -1 -6 -11 -21 -31 -34
			-46 -12 -14 -29 -36 -36 -50 -7 -13 -28 -42 -48 -64 l-35 -40 32 49 c23 35 29
			50 20 56 -7 4 -11 9 -10 11 2 2 -4 15 -14 29 -19 28 -23 20 -5 -10 17 -27 -1
			-76 -27 -72 -13 2 -16 0 -8 -5 9 -6 4 -21 -18 -53 -36 -53 -42 -60 -33 -36 6
			15 4 17 -6 11 -9 -5 -11 -4 -6 4 4 6 12 9 17 6 5 -4 9 -4 9 -1 0 2 3 12 7 22
			4 12 3 15 -5 10 -9 -5 -9 -1 -2 18 15 39 -12 23 -35 -22 -11 -20 -24 -40 -30
			-44 -5 -4 -6 -10 -2 -14 4 -4 0 -15 -9 -25 -17 -19 -10 -64 8 -53 6 4 6 -2 -1
			-15 -14 -25 -23 -28 -14 -4 4 11 3 14 -5 9 -7 -4 -12 -15 -12 -24 -1 -24 -98
			-125 -112 -116 -7 5 -8 3 -3 -5 5 -9 -24 -43 -86 -102 -52 -49 -96 -89 -100
			-89 -3 0 -19 -12 -35 -26 -82 -72 -99 -82 -111 -68 -8 8 -9 15 -3 19 6 3 10 1
			10 -5 0 -17 40 7 76 46 18 19 36 34 41 34 15 0 44 36 36 43 -3 4 1 7 10 7 9 0
			17 6 17 14 0 7 6 19 14 25 8 7 18 26 21 42 4 16 13 29 21 29 11 0 13 6 9 20
			-4 14 -1 22 10 26 12 5 15 14 10 31 -3 15 0 30 10 39 8 9 12 20 9 26 -4 7 -2
			8 4 4 9 -5 9 -13 2 -26 -15 -28 -12 -39 8 -34 17 5 25 55 10 70 -9 8 -1 24 13
			24 5 0 9 -7 9 -15 0 -21 13 -19 30 6 17 24 29 36 59 61 11 10 21 27 21 38 0
			12 3 19 8 16 4 -2 16 13 26 35 11 21 23 39 28 39 4 0 -1 9 -12 20 -12 12 -26
			18 -31 14 -8 -4 -7 -10 2 -16 11 -6 9 -8 -6 -6 -20 3 -22 -2 -9 -37 7 -20 7
			-20 -9 0 -8 11 -19 17 -22 13 -4 -4 0 -14 9 -23 23 -23 20 -32 -4 -10 -19 17
			-25 14 -20 -10 1 -5 -1 -7 -5 -3 -7 7 -21 -2 -55 -36 -11 -11 -22 -18 -24 -15
			-2 2 41 51 97 108 55 57 98 97 94 88 -4 -10 -3 -17 2 -17 5 0 11 9 14 20 3 11
			1 18 -4 14 -5 -3 -9 -1 -9 5 0 5 7 14 16 19 8 4 23 20 32 34 82 124 114 168
			120 164 4 -2 7 9 7 25 0 35 -3 32 -80 -81 -68 -101 -104 -142 -118 -133 -6 4
			-7 1 -2 -6 9 -15 -33 -63 -48 -54 -6 3 -7 2 -4 -4 4 -6 -5 -21 -18 -33 -24
			-22 -32 -18 -25 15 1 6 -2 7 -6 2 -11 -10 -13 -47 -2 -41 4 3 8 2 8 -3 0 -12
			-152 -148 -162 -146 -4 2 -7 -1 -5 -6 1 -4 -22 -30 -51 -56 -43 -39 -56 -46
			-64 -34 -7 10 -7 7 -3 -10 6 -19 4 -23 -7 -18 -18 6 -45 -9 -35 -20 5 -4 13
			-1 18 7 9 13 10 13 6 0 -2 -8 -12 -14 -21 -13 -11 0 -15 -4 -12 -13 6 -16 -10
			-29 -19 -14 -3 6 0 24 9 40 11 22 11 32 3 37 -17 11 -68 12 -61 2 7 -12 -3
			-11 -28 2 -14 8 -23 8 -31 0 -8 -8 -7 -11 4 -11 9 0 20 -18 28 -46 13 -42 12
			-48 -3 -56 -9 -5 -16 -20 -16 -34 0 -16 -5 -24 -12 -21 -13 4 -14 22 -3 69 6
			23 5 26 -14 21 -14 -3 -21 -13 -21 -29 0 -21 -5 -24 -40 -24 -22 0 -40 5 -40
			11 0 5 -5 7 -11 3 -19 -12 -79 -22 -73 -13 7 12 -3 11 -43 -3 -18 -7 -33 -16
			-33 -20 0 -4 -8 -8 -17 -7 -11 0 -13 3 -5 6 15 6 15 13 -2 36 -13 17 -16 16
			-62 -13 -26 -16 -54 -30 -61 -30 -7 0 -13 -9 -13 -20 0 -13 -9 -22 -25 -26
			-29 -7 -33 -20 -7 -28 9 -2 -1 -2 -22 1 -28 4 -37 2 -32 -6 5 -7 -6 -11 -33
			-11 -34 0 -41 -3 -41 -20 0 -17 -7 -20 -40 -20 -27 0 -43 -5 -46 -15 -4 -8
			-11 -15 -16 -15 -7 0 -7 4 0 12 15 20 20 75 6 75 -6 0 -9 -9 -6 -19 2 -10 -4
			-30 -13 -45 -17 -26 -19 -26 -26 -8 -7 18 -8 18 -8 2 -1 -10 -5 -16 -10 -12
			-5 3 -12 1 -16 -5 -3 -5 1 -10 9 -10 18 0 21 -16 5 -26 -6 -3 -16 0 -21 7 -7
			10 -8 9 -3 -6 22 -61 10 -98 -16 -49 -12 23 -10 32 24 97 20 40 39 93 42 118
			5 43 8 46 53 62 62 23 222 121 380 232 129 91 341 290 410 385 18 25 58 78 88
			118 116 154 188 283 267 482 109 273 213 668 242 920 11 96 -10 40 -29 -75
			-32 -199 -105 -476 -188 -709 -58 -161 -179 -430 -192 -425 -5 2 -14 -11 -21
			-30 -6 -20 -19 -35 -30 -37 -10 -1 -28 -13 -39 -25 -12 -12 -15 -19 -8 -15 18
			10 15 -4 -11 -49 -12 -22 -28 -41 -35 -41 -25 -3 -27 -4 -14 -12 29 -19 -172
			-247 -341 -389 -94 -78 -218 -164 -332 -230 -71 -41 -186 -103 -190 -103 -2 0
			6 24 17 53 26 67 20 121 -19 178 -17 24 -36 61 -43 82 -11 34 -10 40 7 53 17
			14 17 14 -1 7 -18 -6 -19 -3 -12 48 8 61 19 76 73 104 89 46 293 197 293 217
			0 16 -15 8 -70 -36 -128 -104 -158 -126 -214 -160 -32 -19 -63 -33 -67 -30
			-17 10 -9 41 16 64 13 12 22 27 19 31 -3 5 0 9 6 9 9 0 89 64 217 174 13 11
			23 24 23 29 0 5 -16 -5 -35 -22 -36 -31 -57 -42 -37 -19 6 7 43 46 82 86 90
			93 238 265 277 323 16 24 52 80 78 124 59 99 57 95 52 95 -3 0 -24 -32 -48
			-71 -69 -116 -166 -239 -292 -373 -92 -97 -143 -142 -232 -202 -118 -80 -139
			-85 -151 -40 -6 25 17 103 43 141 7 11 13 35 13 55 0 31 -10 52 -52 113 -11
			15 -10 20 5 28 20 12 22 35 3 42 -9 4 -15 30 -18 78 -5 67 -9 76 -36 99 -28
			23 -30 30 -25 67 6 43 -20 139 -39 145 -7 3 -5 15 5 35 27 50 32 109 13 137
			-9 14 -16 40 -16 58 0 23 -9 42 -32 65 -18 18 -37 33 -44 33 -34 0 -70 113
			-80 249 l-6 86 62 124 c37 76 85 199 122 310 33 103 75 222 93 266 18 44 41
			105 50 135 31 97 52 130 83 130 48 0 162 29 218 54 99 46 345 217 419 292 39
			39 92 86 119 104 27 18 65 50 85 70 20 20 62 53 94 73 31 20 57 41 57 46 0 11
			89 75 169 122 58 34 177 146 167 157 -4 3 -32 -19 -64 -49 -86 -83 -131 -119
			-149 -119 -13 0 -13 3 -2 18 7 9 -9 -5 -36 -32 -44 -43 -50 -47 -53 -28 -5 35
			22 73 157 218 72 76 146 160 164 186 17 26 34 48 37 48 3 0 28 -42 57 -93z
			m-7 49 c0 -6 -7 -1 -15 10 -8 10 -15 23 -15 28 0 6 7 1 15 -10 8 -10 15 -23
			15 -28z m-2697 -6 c-10 -18 -22 -41 -28 -51 -5 -11 -13 -19 -18 -19 -4 0 -5 6
			-2 13 4 6 -3 1 -14 -12 l-21 -23 0 24 c0 13 9 34 20 45 13 15 16 23 7 26 -7 2
			3 7 20 11 18 4 36 12 39 17 3 6 8 8 11 6 2 -3 -4 -20 -14 -37z m-1920 -35 c-7
			-21 -12 -19 -10 4 0 11 5 18 9 15 4 -3 5 -11 1 -19z m5218 -107 c52 -105 136
			-325 126 -334 -1 -2 -28 61 -59 140 -48 120 -118 282 -135 309 -2 4 -2 7 1 7
			3 0 33 -55 67 -122z m-5175 70 c1 -31 -10 -27 -20 8 -4 13 -2 21 6 21 7 0 13
			-13 14 -29z m1545 1 c10 -6 8 -9 -8 -9 -17 0 -23 6 -23 23 0 16 3 18 9 8 5 -7
			15 -17 22 -22z m2394 -259 c-10 -11 -23 -20 -28 -20 -6 0 -2 9 8 20 10 11 23
			20 28 20 6 0 2 -9 -8 -20z m-2171 -66 c7 -18 7 -65 0 -47 -3 7 -11 10 -18 7
			-12 -5 -14 9 -7 49 2 13 19 7 25 -9z m1096 -43 c23 -7 21 -8 -16 -14 -43 -7
			-93 -39 -186 -120 -32 -27 -58 -47 -58 -45 0 13 35 105 44 118 6 8 -1 5 -16
			-5 -15 -11 -40 -49 -57 -86 -31 -69 -42 -82 -79 -93 -21 -7 -22 -6 -10 19 6
			14 14 21 17 16 4 -6 12 -6 21 0 13 8 13 10 0 19 -13 8 -12 10 5 11 11 0 14 3
			7 6 -6 2 -9 10 -5 16 4 7 10 30 13 51 6 49 40 76 100 80 25 2 56 8 70 13 14 6
			32 13 40 16 21 8 80 7 110 -2z m386 -29 c8 -4 -5 -25 -37 -60 -44 -48 -51 -52
			-64 -38 -18 18 -77 36 -117 36 -42 0 -34 15 24 44 40 20 67 26 117 26 37 0 71
			-4 77 -8z m-1988 -53 c45 -22 82 -41 82 -42 0 -2 -15 -2 -32 0 -32 4 -32 3 7
			-11 46 -17 83 -57 122 -132 24 -47 29 -51 35 -33 6 16 14 20 31 15 12 -4 46
			-13 75 -21 29 -8 66 -22 82 -30 16 -8 60 -22 97 -30 221 -50 243 -59 243 -101
			0 -16 4 -23 11 -18 6 3 9 15 6 25 -5 20 7 26 18 9 10 -17 -6 -62 -21 -56 -8 3
			-14 -1 -14 -9 0 -8 6 -15 14 -15 13 0 26 -20 26 -41 0 -6 -9 -7 -21 -4 -18 6
			-19 5 -8 -13 7 -12 15 -20 18 -19 7 2 11 -8 11 -24 0 -5 -4 -8 -9 -4 -13 7
			-24 -12 -26 -44 -7 -89 -18 -156 -26 -159 -5 -2 -12 -21 -15 -42 l-6 -39 -122
			4 c-168 6 -199 15 -271 81 -47 42 -55 54 -39 54 11 0 24 3 28 7 7 7 -89 103
			-104 103 -5 0 -13 15 -18 33 -8 26 -56 109 -89 152 -4 6 -9 17 -11 25 -6 30
			-67 110 -80 105 -7 -3 -10 0 -7 5 6 10 -17 40 -30 40 -4 0 -13 7 -21 15 -9 8
			-13 15 -9 15 4 0 -1 7 -10 16 -9 9 -14 23 -11 31 3 7 -2 17 -10 20 -9 3 -36
			25 -60 49 -46 45 -50 46 -33 11 5 -12 -6 -4 -25 18 -38 42 -51 80 -19 54 15
			-13 15 -12 5 8 -17 31 -16 31 26 36 68 8 126 -4 210 -44z m217 -20 c22 -23 34
			-39 28 -35 -7 4 -13 2 -13 -3 0 -6 -5 -11 -11 -11 -12 0 -79 69 -79 81 0 22
			40 5 75 -32z m802 -56 c-2 -16 -4 -5 -4 22 0 28 2 40 4 28 2 -13 2 -35 0 -50z
			m-607 45 c-1 -7 -9 -29 -19 -48 l-19 -35 -13 27 c-10 24 -10 31 6 48 20 22 45
			27 45 8z m1196 -2 c5 -12 26 -14 125 -9 88 5 122 3 134 -7 24 -20 19 -27 -42
			-67 -57 -37 -185 -141 -191 -155 -2 -5 -9 -8 -15 -8 -7 0 -37 -26 -67 -58 -30
			-32 -67 -66 -82 -76 -16 -10 -28 -23 -28 -28 0 -5 10 -2 22 6 12 9 27 16 32
			16 6 0 -1 -8 -14 -17 -14 -9 -28 -22 -32 -27 -5 -7 -8 -7 -8 2 0 9 -8 8 -32
			-4 -33 -17 -64 -46 -109 -103 -13 -17 -32 -31 -41 -31 -10 0 -22 -9 -28 -21
			-9 -16 -8 -24 4 -38 18 -20 21 -51 5 -51 -6 0 -9 -6 -7 -12 5 -13 -14 -38 -27
			-38 -4 0 -18 -9 -31 -19 -30 -24 -131 -57 -198 -65 -46 -6 -50 -4 -82 30 -19
			19 -34 31 -34 25 0 -20 -28 1 -40 30 -7 16 -16 26 -22 23 -5 -3 -6 5 -3 18 3
			12 7 39 9 58 2 19 7 58 11 87 5 40 3 57 -10 77 -10 14 -15 32 -12 40 3 8 1 16
			-5 18 -20 7 3 30 24 25 20 -6 20 -6 1 16 -35 39 -34 53 3 66 19 7 34 16 34 21
			0 5 19 19 42 31 31 16 75 24 168 32 156 14 296 15 335 3 30 -9 30 -9 12 12
			-22 24 -15 42 16 42 17 0 19 2 7 9 -8 6 -18 8 -22 5 -4 -3 -16 0 -27 6 -13 6
			-22 7 -26 0 -3 -5 -15 -15 -27 -21 -20 -11 -20 -11 -2 21 28 48 89 96 158 124
			69 28 114 33 122 12z m-375 -27 c-11 -12 -24 -20 -27 -16 -4 4 4 15 17 26 31
			25 37 19 10 -10z m729 28 c0 -2 -10 -12 -22 -23 l-23 -19 19 23 c18 21 26 27
			26 19z m-2574 -54 c-4 -11 -2 -13 9 -10 8 4 20 -2 28 -13 8 -11 16 -18 18 -16
			2 3 24 -14 49 -36 29 -26 35 -34 16 -23 -22 13 -30 14 -36 4 -10 -15 -40 11
			-40 35 0 19 -20 22 -20 4 0 -7 -12 0 -26 16 -14 16 -23 35 -20 43 3 8 2 12 -2
			9 -4 -3 -13 4 -19 14 -11 17 -10 17 18 3 20 -10 28 -20 25 -30z m1764 13 c52
			-1 57 -19 16 -62 -25 -27 -36 -32 -41 -22 -5 7 -5 10 0 6 5 -5 15 1 22 12 12
			17 12 24 2 36 -10 13 -15 11 -30 -13 -16 -24 -19 -25 -20 -8 l0 20 -9 -20 c-7
			-17 -9 -17 -9 -2 -1 27 2 32 19 29 8 -1 3 5 -12 13 -16 9 -28 22 -28 31 0 12
			4 12 25 -2 14 -9 43 -17 65 -18z m-3837 -21 c-3 -9 -8 -14 -10 -11 -3 3 -2 9
			2 15 9 16 15 13 8 -4z m-27 -71 c-8 -21 -15 -34 -15 -28 -1 15 20 76 25 71 2
			-2 -2 -21 -10 -43z m3751 -6 c-3 -8 -6 -5 -6 6 -1 11 2 17 5 13 3 -3 4 -12 1
			-19z m156 -13 c-3 -9 -8 -14 -10 -11 -3 3 -2 9 2 15 9 16 15 13 8 -4z m347
			-209 c0 -2 -7 -7 -16 -10 -8 -3 -12 -2 -9 4 6 10 25 14 25 6z m-210 -201 c-7
			-9 -15 -13 -19 -10 -3 3 1 10 9 15 21 14 24 12 10 -5z m2907 -307 c-3 -7 -5
			-2 -5 12 0 14 2 19 5 13 2 -7 2 -19 0 -25z m-3937 -9 c0 -6 -25 -17 -62 -25
			-12 -3 -16 1 -12 11 4 8 -1 17 -10 21 -9 3 -14 10 -11 14 5 9 95 -10 95 -21z
			m871 10 c48 -16 118 -49 124 -59 10 -17 -26 -88 -48 -94 -20 -6 -21 -7 -5 -19
			25 -20 33 -82 14 -112 -10 -15 -22 -22 -31 -19 -10 4 -15 0 -15 -11 0 -9 -5
			-13 -11 -10 -6 4 -8 14 -5 22 3 8 1 11 -5 8 -5 -4 -16 -2 -23 4 -7 6 -28 10
			-48 9 -19 -1 -41 3 -49 8 -8 5 -28 14 -46 20 l-32 11 45 -58 c25 -31 54 -65
			65 -75 34 -30 22 -74 -34 -124 -18 -16 -44 -32 -58 -35 -15 -3 -36 -15 -47
			-25 -23 -22 -47 -26 -57 -10 -3 5 -12 7 -19 4 -18 -7 -50 79 -42 111 4 14 2
			25 -3 25 -13 0 -36 62 -32 90 3 25 27 60 42 60 5 0 30 14 56 30 36 23 42 30
			25 30 -16 0 -20 4 -16 18 5 14 4 15 -5 2 -9 -13 -12 -13 -23 2 -7 9 -22 19
			-33 22 -11 3 0 3 25 1 l45 -5 -50 16 c-60 19 -61 20 -46 38 16 19 0 28 -36 22
			-23 -4 -30 -1 -40 21 -16 33 -8 46 23 39 17 -5 24 -2 24 9 0 21 41 29 108 20
			113 -13 135 -13 167 6 35 22 50 23 96 8z m-456 -43 c8 -23 9 -34 3 -28 -11 11
			-48 -1 -48 -16 0 -13 54 -40 69 -34 9 3 11 0 6 -8 -4 -7 -8 -26 -7 -41 0 -16
			-4 -29 -9 -29 -5 0 -9 -6 -9 -14 0 -9 -18 -15 -57 -18 -75 -7 -199 -44 -233
			-70 -23 -16 -32 -18 -49 -9 -27 15 -38 58 -19 74 19 15 31 47 17 47 -5 0 -28
			-9 -51 -21 -47 -24 -58 -18 -65 35 -7 51 17 57 79 23 65 -37 75 -34 30 8 -31
			29 -35 36 -22 45 8 6 32 7 54 4 28 -5 37 -3 31 6 -4 6 -13 9 -21 6 -8 -3 -14
			1 -14 11 0 9 3 14 6 10 3 -3 23 3 42 14 43 22 59 24 65 7 3 -9 11 -6 26 10 12
			12 27 22 34 22 7 0 6 -4 -3 -10 -25 -16 12 -13 51 5 54 24 79 16 94 -29z m719
			18 c16 -41 0 -104 -23 -90 -6 4 -11 2 -11 -4 0 -7 -14 -30 -32 -52 -30 -38
			-32 -39 -40 -19 -4 12 -4 30 1 39 5 9 12 25 15 35 3 11 15 21 26 24 11 3 18 9
			15 13 -6 9 26 70 36 70 4 0 10 -7 13 -16z m2836 -239 c7 -98 7 -170 2 -185 -6
			-17 -11 32 -16 160 -3 102 -8 205 -11 230 l-4 45 9 -45 c5 -25 14 -117 20
			-205z m-3555 175 c3 -6 -1 -7 -9 -4 -18 7 -21 14 -7 14 6 0 13 -4 16 -10z
			m591 -125 c10 -26 -1 -35 -13 -10 -6 14 -7 25 -2 25 5 0 12 -7 15 -15z m2781
			-27 c-3 -7 -5 -2 -5 12 0 14 2 19 5 13 2 -7 2 -19 0 -25z m-2706 -27 c-14 -12
			-20 -25 -15 -32 4 -8 3 -9 -4 -5 -18 11 -14 34 6 45 29 17 36 12 13 -8z m-682
			-8 c26 -21 36 -75 27 -138 -6 -38 -13 -49 -44 -69 -26 -16 -39 -20 -44 -12 -6
			8 -8 8 -8 0 0 -12 -64 -29 -90 -25 -32 6 -59 77 -45 122 10 32 85 110 120 125
			41 18 59 17 84 -3z m3442 -50 c-10 -17 -10 -16 -11 3 0 23 13 41 18 25 2 -6
			-1 -18 -7 -28z m6 -155 c-3 -8 -6 -5 -6 6 -1 11 2 17 5 13 3 -3 4 -12 1 -19z
			m50 -85 c-3 -10 -5 -2 -5 17 0 19 2 27 5 18 2 -10 2 -26 0 -35z m-3494 1 c19
			-39 22 -80 7 -89 -5 -3 -10 -20 -10 -37 l0 -30 -67 7 c-38 4 -72 9 -76 12 -13
			8 2 75 21 97 19 21 92 76 101 76 3 0 14 -16 24 -36z m181 -116 c13 -20 22 -39
			18 -42 -15 -15 -102 -1 -102 17 0 11 51 69 56 64 2 -1 14 -19 28 -39z m425
			-63 c12 -4 28 -20 35 -37 12 -28 14 -29 29 -13 16 15 17 15 17 -7 0 -16 3 -19
			8 -10 12 18 35 -89 26 -122 -9 -38 -28 -33 -20 6 6 29 5 31 -8 18 -10 -9 -16
			-37 -17 -72 -1 -35 -9 -69 -20 -87 -22 -36 -100 -91 -129 -91 -12 0 -19 -4
			-16 -8 3 -5 -1 -9 -9 -9 -8 0 -12 4 -9 8 2 4 -7 19 -20 34 -17 18 -26 22 -30
			13 -3 -7 -3 34 1 92 4 58 6 115 6 128 -1 12 2 22 6 22 3 0 7 21 9 46 1 26 9
			58 18 73 13 22 22 26 58 25 23 -1 52 -5 65 -9z m-1035 -76 c4 -31 23 -82 47
			-127 36 -65 40 -80 34 -118 -10 -70 -24 -73 -116 -29 -93 46 -98 59 -39 118
			l40 40 -8 64 c-7 49 -5 68 5 83 22 31 30 24 37 -31z m714 27 c15 -8 42 -33 61
			-56 30 -37 32 -44 17 -52 -19 -10 -22 -40 -3 -33 27 10 35 -9 27 -62 -11 -66
			-34 -110 -62 -118 -13 -4 -32 -15 -43 -25 -60 -51 -397 -81 -429 -38 -6 8 -18
			13 -26 10 -11 -4 -10 -1 3 12 12 12 28 17 47 14 17 -3 30 -3 30 -2 0 6 -116
			68 -123 66 -5 -1 -6 2 -3 7 12 18 -6 71 -24 71 -25 0 -51 44 -54 93 -5 89 23
			105 192 109 99 3 115 1 126 -14 14 -19 42 -24 48 -10 7 17 85 41 136 41 29 1
			65 -5 80 -13z m-3435 -151 l6 -60 -14 60 c-8 33 -14 67 -14 75 -1 39 17 -19
			22 -75z m6524 -12 c-3 -10 -5 -4 -5 12 0 17 2 24 5 18 2 -7 2 -21 0 -30z m33
			22 c0 -8 -4 -15 -10 -15 -5 0 -10 7 -10 15 0 8 5 15 10 15 6 0 10 -7 10 -15z
			m-4079 -101 c30 -15 81 -37 114 -50 56 -21 154 -64 270 -120 28 -13 93 -30
			145 -38 53 -8 132 -29 177 -47 46 -18 82 -34 80 -35 -1 -1 -69 2 -152 7 -82 4
			-187 9 -232 11 -44 2 -76 6 -70 10 7 4 -4 7 -25 6 -26 -1 -72 16 -160 59 -69
			33 -136 64 -149 68 -13 4 -36 18 -51 30 -23 20 -25 25 -13 35 12 10 26 7 71
			-14 76 -36 91 -28 26 15 -29 18 -52 37 -52 41 0 5 -6 8 -14 8 -7 0 -16 9 -19
			20 -3 11 -4 20 -3 20 1 0 27 -12 57 -26z m-2414 -26 c-3 -7 -5 -2 -5 12 0 14
			2 19 5 13 2 -7 2 -19 0 -25z m3933 -17 c-12 -17 -17 -31 -11 -31 6 0 11 4 11
			9 0 5 6 11 13 14 11 4 11 -2 3 -28 -6 -19 -15 -31 -21 -27 -5 3 -5 -1 1 -9 9
			-11 8 -17 -4 -29 -14 -13 -15 -12 -9 3 8 21 -6 22 -23 2 -7 -8 -18 -15 -26
			-15 -7 0 -19 -6 -26 -13 -13 -12 -63 -37 -75 -37 -7 0 16 20 81 70 75 58 59
			60 -27 3 -45 -30 -90 -61 -101 -69 -23 -20 -80 -45 -241 -105 -71 -26 -158
			-60 -193 -74 -54 -22 -193 -54 -297 -68 -25 -3 -24 -4 10 -6 77 -2 20 -21 -95
			-30 -121 -10 -250 4 -315 33 -16 7 -37 16 -45 19 -8 3 59 5 150 4 138 -1 192
			4 330 27 91 16 168 32 171 38 3 5 73 36 155 69 123 49 294 136 314 159 21 23
			193 121 207 117 15 -4 15 -6 -4 -12 -13 -4 -23 -12 -23 -17 0 -6 -7 -8 -15 -4
			-10 3 -17 -3 -21 -20 -8 -32 -2 -37 22 -19 39 30 119 81 123 79 2 -2 -7 -17
			-19 -33z m-550 -91 c0 -5 -5 -10 -11 -10 -5 0 -7 5 -4 10 3 6 8 10 11 10 2 0
			4 -4 4 -10z m625 -43 c-8 -19 -19 -39 -25 -42 -6 -4 -4 10 5 32 9 21 19 45 23
			52 3 8 7 10 9 5 2 -6 -3 -27 -12 -47z m-1721 17 c3 -8 2 -12 -4 -9 -6 3 -10
			10 -10 16 0 14 7 11 14 -7z m1051 7 c-25 -10 -151 -23 -143 -15 8 7 93 21 133
			22 25 1 26 -1 10 -7z m3092 -33 c-3 -7 -5 -2 -5 12 0 14 2 19 5 13 2 -7 2 -19
			0 -25z m-2918 -2 c-2 -2 -24 -6 -49 -10 -53 -8 -47 4 7 14 36 6 52 5 42 -4z
			m-114 -6 c-3 -5 -34 -11 -68 -11 -34 -1 -75 -5 -92 -9 -17 -5 11 -6 64 -3 66
			4 92 3 87 -5 -9 -15 -143 -26 -207 -17 -52 8 -53 8 -24 17 112 33 254 50 240
			28z m3025 -47 c-11 -17 -11 -17 -6 0 3 10 6 24 7 30 0 9 2 9 5 0 3 -7 0 -20
			-6 -30z m-6383 -5 c-3 -8 -6 -5 -6 6 -1 11 2 17 5 13 3 -3 4 -12 1 -19z m30
			-60 c-3 -8 -6 -5 -6 6 -1 11 2 17 5 13 3 -3 4 -12 1 -19z m2756 -5 c-7 -2 -19
			-2 -25 0 -7 3 -2 5 12 5 14 0 19 -2 13 -5z m822 -8 c-43 -15 -82 -19 -72 -8 7
			6 72 21 97 21 8 0 -3 -6 -25 -13z m2753 -63 c-6 -39 -16 -68 -21 -65 -5 3 -6
			-4 -2 -16 7 -24 -11 -81 -26 -81 -11 0 -11 16 -2 49 6 23 7 24 15 5 6 -14 7
			-10 4 13 -3 18 -1 45 4 60 5 15 14 48 20 72 17 65 22 43 8 -37z m-81 46 c-3
			-8 -6 -5 -6 6 -1 11 2 17 5 13 3 -3 4 -12 1 -19z m-6240 -30 c-3 -7 -5 -2 -5
			12 0 14 2 19 5 13 2 -7 2 -19 0 -25z m3423 2 c0 -5 -6 -10 -12 -10 -7 0 -26
			-7 -43 -16 -60 -32 -168 -65 -176 -53 -4 7 -19 9 -34 7 -19 -4 -23 -2 -16 5 9
			9 244 74 274 76 4 1 7 -3 7 -9z m2805 -40 c-4 -12 -9 -19 -12 -17 -3 3 -2 15
			2 27 4 12 9 19 12 17 3 -3 2 -15 -2 -27z m-6263 -15 c3 -14 1 -25 -3 -25 -5 0
			-9 11 -9 25 0 14 2 25 4 25 2 0 6 -11 8 -25z m3693 -13 c19 -6 -14 -8 -95 -8
			-76 1 -132 -3 -144 -10 -15 -9 7 -13 105 -17 105 -4 139 -10 219 -37 79 -27
			117 -47 107 -56 -1 -1 -21 1 -44 6 -42 7 -61 -5 -25 -16 42 -14 122 -56 122
			-65 0 -5 -11 -11 -25 -15 -30 -7 -23 -26 8 -22 14 2 23 -3 25 -14 3 -14 -1
			-16 -15 -11 -17 6 -17 5 1 -16 l20 -22 -26 13 c-14 8 -38 27 -54 44 -43 46
			-303 171 -393 190 -41 8 -81 12 -90 9 -14 -5 -14 -4 -1 9 8 8 44 24 80 35 66
			21 153 22 225 3z m2460 -34 c-3 -24 -9 -52 -12 -62 -4 -15 -1 -18 16 -13 29 7
			23 -14 -7 -28 -22 -10 -30 -25 -13 -25 12 0 2 -38 -22 -78 -11 -18 -17 -41
			-14 -51 3 -12 -4 -27 -19 -40 -18 -16 -23 -27 -18 -46 5 -21 3 -25 -14 -25
			-25 0 -39 19 -22 30 7 4 9 13 5 21 -6 9 -11 6 -17 -11 -13 -36 -20 -16 -9 27
			5 21 15 61 22 88 7 28 18 58 25 68 12 18 12 18 23 0 9 -16 11 -14 17 15 4 19
			13 36 20 39 9 3 12 14 8 29 -4 15 -2 24 5 24 6 0 11 11 11 24 0 26 9 56 17 56
			3 0 2 -19 -2 -42z m-2955 13 c0 -10 -35 -21 -70 -21 -19 0 -22 2 -10 9 8 6 18
			7 22 5 4 -3 16 0 25 5 22 13 33 14 33 2z m3044 -25 c-3 -15 -8 -25 -11 -23 -2
			3 -1 17 3 31 3 15 8 25 11 23 2 -3 1 -17 -3 -31z m-6254 -6 c0 -5 -4 -10 -10
			-10 -5 0 -10 5 -10 10 0 6 5 10 10 10 6 0 10 -4 10 -10z m39 -33 c1 -5 -3 -5
			-9 -2 -5 3 -10 16 -9 28 0 21 1 21 9 2 5 -11 9 -24 9 -28z m6178 11 c-3 -8 -6
			-5 -6 6 -1 11 2 17 5 13 3 -3 4 -12 1 -19z m-2853 6 c27 -10 18 -24 -26 -44
			-37 -16 -158 -33 -158 -22 0 5 144 71 157 72 6 0 18 -3 27 -6z m2856 -33 c0
			-6 -4 -13 -10 -16 -5 -3 -10 1 -10 9 0 9 5 16 10 16 6 0 10 -4 10 -9z m-6161
			-70 c-1 -24 -2 -24 -11 7 -6 17 -15 32 -19 32 -5 0 -9 5 -9 12 0 6 9 3 20 -7
			11 -10 20 -30 19 -44z m-59 16 c0 -5 -4 -5 -10 -2 -5 3 -10 14 -10 23 0 15 2
			15 10 2 5 -8 10 -19 10 -23z m6087 11 c-3 -8 -6 -5 -6 6 -1 11 2 17 5 13 3 -3
			4 -12 1 -19z m223 -5 c-1 -24 -2 -26 -11 -10 -5 9 -7 22 -4 27 10 17 15 11 15
			-17z m-103 -15 c-3 -8 -6 -5 -6 6 -1 11 2 17 5 13 3 -3 4 -12 1 -19z m-6184
			-15 c-7 -2 -19 -2 -25 0 -7 3 -2 5 12 5 14 0 19 -2 13 -5z m17 -56 c0 -7 14
			-12 35 -13 44 -1 54 -10 29 -28 -18 -14 -18 -15 -1 -21 19 -8 22 -32 6 -55 -8
			-12 -9 -10 -4 8 5 16 2 22 -9 22 -9 0 -16 7 -16 15 0 8 -5 15 -11 15 -6 0 -8
			-8 -4 -19 3 -12 0 -21 -9 -24 -9 -4 -13 -1 -10 7 3 7 -2 26 -11 42 -17 33 -20
			64 -5 64 6 0 10 -6 10 -13z m6127 -71 c-7 -26 -15 -44 -19 -41 -4 4 0 24 7 46
			8 22 12 47 9 57 -5 15 -4 15 5 1 7 -10 6 -30 -2 -63z m-17 44 c0 -5 -2 -10 -4
			-10 -3 0 -8 5 -11 10 -3 6 -1 10 4 10 6 0 11 -4 11 -10z m-2713 -38 c-34 -35
			-34 -46 -1 -38 23 6 25 5 19 -16 -26 -86 -106 -157 -210 -184 -64 -17 -62 -18
			-75 6 -9 17 -7 22 14 32 14 6 23 14 21 19 -3 4 13 20 35 36 46 32 49 40 18 45
			-18 3 -6 12 52 41 41 21 89 48 105 62 41 33 55 31 22 -3z m2699 -29 c-10 -10
			-19 5 -10 18 6 11 8 11 12 0 2 -7 1 -15 -2 -18z m-6111 -3 c3 -5 1 -10 -4 -10
			-6 0 -11 5 -11 10 0 6 2 10 4 10 3 0 8 -4 11 -10z m-39 -37 c-11 -11 -19 6
			-11 24 8 17 8 17 12 0 3 -10 2 -21 -1 -24z m104 27 c0 -5 -4 -10 -10 -10 -5 0
			-10 5 -10 10 0 6 5 10 10 10 6 0 10 -4 10 -10z m60 0 c0 -5 -2 -10 -4 -10 -3
			0 -8 5 -11 10 -3 6 -1 10 4 10 6 0 11 -4 11 -10z m-110 -41 c0 -6 -4 -7 -10
			-4 -5 3 -10 11 -10 16 0 6 5 7 10 4 6 -3 10 -11 10 -16z m70 -5 c0 -19 10 -17
			30 6 l18 20 5 -20 c4 -15 0 -20 -13 -20 -20 0 -50 -25 -50 -41 0 -6 8 -8 18
			-5 22 7 39 -4 44 -28 4 -26 -18 -32 -25 -6 -3 12 -13 20 -26 20 -12 0 -21 2
			-21 4 0 2 -3 12 -7 22 -4 12 -3 15 5 10 8 -5 12 1 12 16 0 18 -2 20 -10 8 -10
			-17 -15 -14 -24 16 -6 19 -3 21 19 16 14 -2 25 -11 25 -18z m2497 19 c-9 -2
			-15 -9 -12 -14 9 -14 -63 -11 -120 5 l-50 14 100 0 c55 0 92 -2 82 -5z m-2727
			-24 c0 -6 -4 -7 -10 -4 -5 3 -10 11 -10 16 0 6 5 7 10 4 6 -3 10 -11 10 -16z
			m6110 6 c0 -8 -2 -15 -4 -15 -2 0 -6 7 -10 15 -3 8 -1 15 4 15 6 0 10 -7 10
			-15z m133 -5 c3 -11 1 -18 -4 -14 -5 3 -9 12 -9 20 0 20 7 17 13 -6z m27 16
			c0 -3 -4 -8 -10 -11 -5 -3 -10 -1 -10 4 0 6 5 11 10 11 6 0 10 -2 10 -4z
			m-128 -45 c-2 -16 1 -39 8 -51 9 -16 9 -25 1 -33 -8 -8 -11 -5 -11 11 0 12 -6
			21 -12 20 -12 -3 -13 4 -3 57 4 26 4 25 13 25 5 0 7 -13 4 -29z m-5845 -3 c6
			-7 15 -27 21 -45 9 -26 8 -31 -4 -26 -7 3 -12 9 -9 13 3 5 1 11 -5 15 -6 4 -8
			10 -5 15 3 4 -2 10 -10 14 -16 6 -21 26 -6 26 5 0 13 -6 18 -12z m5900 -3 c8
			-9 12 -19 8 -23 -4 -4 -10 -1 -12 6 -8 20 -23 14 -23 -10 0 -12 -3 -19 -6 -15
			-7 7 3 57 12 57 3 0 12 -7 21 -15z m-6053 -21 c3 -8 2 -12 -4 -9 -6 3 -10 10
			-10 16 0 14 7 11 14 -7z m36 6 c0 -5 -4 -10 -10 -10 -5 0 -10 5 -10 10 0 6 5
			10 10 10 6 0 10 -4 10 -10z m6131 -15 c5 4 9 2 9 -4 0 -5 -4 -13 -10 -16 -5
			-3 -10 0 -10 7 0 10 -3 9 -11 -2 -9 -12 -10 -12 -5 3 3 10 7 24 7 30 1 7 3 4
			6 -6 2 -9 9 -15 14 -12z m-84 -7 c-3 -8 -6 -5 -6 6 -1 11 2 17 5 13 3 -3 4
			-12 1 -19z m-6179 -33 c0 -19 -4 -35 -9 -35 -10 0 -11 16 -3 48 9 31 12 28 12
			-13z m126 9 c4 -10 1 -14 -6 -12 -15 5 -23 28 -10 28 5 0 13 -7 16 -16z m5889
			3 c7 3 8 2 4 -2 -10 -11 -37 -15 -37 -6 0 14 14 23 18 12 2 -6 9 -8 15 -4z
			m-6053 -7 c0 -5 -5 -10 -11 -10 -5 0 -7 5 -4 10 3 6 8 10 11 10 2 0 4 -4 4
			-10z m5220 -20 c-6 -12 -14 -19 -17 -17 -2 3 1 15 7 27 6 12 14 19 17 17 2 -3
			-1 -15 -7 -27z m-4903 -29 c8 -18 9 -30 3 -26 -6 3 -10 -4 -11 -17 -1 -20 -2
			-19 -10 7 -5 17 -6 38 -3 48 9 29 -11 19 -23 -12 -9 -25 -7 -32 14 -55 14 -15
			22 -33 19 -41 -3 -10 0 -12 11 -8 11 4 14 2 9 -5 -12 -19 -26 -14 -36 13 -5
			13 -21 43 -35 65 -15 23 -23 45 -19 48 4 4 9 1 11 -6 4 -10 9 -7 20 8 19 27
			34 22 50 -19z m23 9 c6 -11 8 -20 6 -20 -3 0 -10 9 -16 20 -6 11 -8 20 -6 20
			3 0 10 -9 16 -20z m5680 12 c0 -5 -7 -17 -16 -28 -8 -10 -14 -14 -11 -9 2 6 7
			18 10 28 7 17 17 23 17 9z m66 -19 c-10 -10 -19 5 -10 18 6 11 8 11 12 0 2 -7
			1 -15 -2 -18z m204 11 c0 -8 -4 -12 -10 -9 -5 3 -10 10 -10 16 0 5 5 9 10 9 6
			0 10 -7 10 -16z m-6105 -32 c1 -17 4 -35 9 -39 5 -4 6 1 2 12 -7 26 8 54 17
			31 4 -9 2 -16 -3 -16 -5 0 -7 -6 -4 -14 3 -8 1 -17 -5 -21 -6 -3 -14 1 -17 9
			-3 9 -11 13 -16 10 -6 -4 -5 2 1 14 14 26 14 45 1 37 -5 -3 -10 -1 -10 5 0 7
			6 10 13 7 6 -2 12 -18 12 -35z m-56 -126 c-8 -17 -8 -16 -4 9 5 30 5 30 -9 6
			-13 -24 -14 -24 -25 -3 -6 11 -11 28 -11 37 0 9 -4 14 -9 11 -10 -7 -22 18
			-17 37 1 6 1 9 -1 4 -8 -13 -23 4 -23 26 0 16 3 18 12 9 17 -17 28 -15 28 4 0
			9 15 -14 34 -51 26 -53 32 -73 25 -89z m6145 128 c3 -8 2 -12 -4 -9 -6 3 -10
			10 -10 16 0 14 7 11 14 -7z m-210 -16 c-5 -8 0 -9 16 -5 l24 6 -26 -24 c-17
			-15 -33 -22 -46 -18 -20 5 -20 6 5 29 28 26 38 31 27 12z m100 4 c2 -4 0 -14
			-6 -22 -8 -12 -9 -12 -4 2 3 10 -1 18 -12 21 -16 4 -16 5 0 6 9 0 19 -3 22 -7z
			m-5800 -18 c3 -8 2 -12 -4 -9 -6 3 -10 10 -10 16 0 14 7 11 14 -7z m5617 -7
			c-6 -8 -10 -21 -8 -28 2 -8 2 -10 -1 -6 -2 4 -11 0 -19 -10 -8 -10 -4 1 8 24
			12 24 25 41 27 38 3 -2 0 -11 -7 -18z m-5756 -16 c-3 -12 -10 -21 -15 -21 -4
			0 -3 11 3 24 14 29 22 27 12 -3z m5895 -1 c0 -11 -4 -20 -9 -20 -5 0 -7 9 -4
			20 3 11 7 20 9 20 2 0 4 -9 4 -20z m-2985 -41 c-27 -11 -102 -36 -165 -56 -96
			-31 -128 -37 -195 -36 -44 0 -91 5 -103 10 -19 7 -4 12 75 22 120 16 173 29
			194 47 22 20 84 32 169 33 l75 0 -50 -20z m-2875 -9 c-7 -4 -9 -13 -6 -19 4
			-6 3 -11 -1 -11 -5 0 -14 10 -22 21 -11 19 -11 21 3 16 9 -4 16 -2 16 4 0 6 5
			7 11 3 8 -5 8 -9 -1 -14z m5775 -7 c12 -44 13 -83 4 -83 -10 0 -13 21 -10 58
			1 16 -4 22 -19 22 -20 0 -26 11 -13 23 14 15 31 6 38 -20z m59 19 c3 -5 -1 -9
			-9 -9 -8 0 -12 4 -9 9 3 4 7 8 9 8 2 0 6 -4 9 -8z m121 -5 c15 19 15 4 1 -29
			-5 -10 -6 -23 -3 -30 4 -8 6 -6 6 5 1 21 21 23 21 2 0 -14 -11 -19 -36 -16
			-18 2 -68 -71 -67 -98 0 -16 -1 -19 -4 -8 -5 18 -5 18 -18 0 -13 -17 -14 -16
			-8 5 3 12 9 22 14 22 5 0 9 6 9 14 0 7 7 19 15 26 9 7 14 18 12 25 -3 6 2 22
			9 36 14 23 14 23 9 2 -4 -13 -2 -23 3 -23 13 0 23 27 18 53 -1 12 -1 16 1 9 4
			-10 8 -9 18 5z m-2482 -8 c49 -27 70 -60 107 -174 20 -61 22 -75 11 -113 -15
			-57 -66 -160 -95 -192 -20 -23 -39 -72 -72 -190 -8 -28 -13 -36 -13 -21 -1 16
			-5 21 -16 17 -10 -3 -17 3 -21 20 -5 19 -9 22 -15 13 -4 -7 -11 -10 -15 -6 -4
			3 -1 13 5 21 10 12 8 18 -13 32 -15 9 -29 27 -32 40 -3 13 -10 24 -14 24 -4 0
			-10 10 -13 22 -4 12 -9 19 -12 16 -4 -3 -1 -17 6 -30 7 -12 12 -30 11 -40 -2
			-9 2 -19 8 -23 5 -3 10 -11 10 -17 0 -6 -9 1 -21 16 -11 14 -18 30 -14 36 3 5
			0 7 -8 4 -11 -4 -14 2 -11 23 3 23 2 22 -7 -6 -8 -27 -13 -31 -20 -20 -5 8 -9
			28 -10 44 -1 26 -2 25 -13 -15 -12 -45 -12 -45 -19 60 -7 119 0 156 47 244 21
			39 27 60 19 63 -8 3 -5 16 10 41 58 99 152 147 220 111z m2519 -11 c-7 -7 -12
			-8 -12 -2 0 14 12 26 19 19 2 -3 -1 -11 -7 -17z m-5909 -13 c-5 -13 -23 -22
			-23 -11 0 15 14 35 21 31 4 -3 6 -12 2 -20z m3152 -10 c-16 -13 -33 -24 -37
			-25 -3 0 -9 -8 -11 -17 -4 -16 -5 -16 -6 -1 -1 17 53 68 72 68 7 0 -1 -11 -18
			-25z m-245 6 c0 -23 -145 -98 -172 -89 -15 5 90 64 107 60 7 -1 20 7 30 18 19
			21 35 26 35 11z m2671 -18 c-12 -20 -14 -14 -5 12 4 9 9 14 11 11 3 -2 0 -13
			-6 -23z m89 7 c0 -5 -10 -10 -22 -10 -19 0 -20 2 -8 10 19 13 30 13 30 0z
			m-5728 -19 c8 12 9 12 6 0 -7 -25 -28 -24 -27 1 1 19 2 20 6 4 4 -15 7 -16 15
			-5z m115 -3 c-3 -8 -6 -5 -6 6 -1 11 2 17 5 13 3 -3 4 -12 1 -19z m2068 -7
			c-6 -5 -25 10 -25 20 0 5 6 4 14 -3 8 -7 12 -15 11 -17z m-2207 -22 c19 -30 8
			-34 -12 -4 -9 14 -13 25 -9 25 5 0 14 -9 21 -21z m5992 10 c0 -5 -14 -15 -30
			-21 -18 -6 -32 -19 -36 -34 -3 -13 -13 -29 -21 -35 -12 -11 -12 -9 -1 17 22
			52 39 73 54 67 8 -3 14 0 14 6 0 6 5 11 10 11 6 0 10 -5 10 -11z m-407 -14
			c-3 -9 -8 -14 -10 -11 -3 3 -2 9 2 15 9 16 15 13 8 -4z m19 -49 c-14 -30 -29
			-53 -33 -50 -7 4 -19 -19 -25 -44 -1 -8 -4 -15 -6 -16 -2 0 -14 -10 -28 -21
			l-25 -20 20 25 c11 14 24 28 28 31 5 3 7 8 6 10 -4 4 81 139 87 139 1 0 -9
			-24 -24 -54z m138 44 c0 -5 -4 -10 -10 -10 -5 0 -10 5 -10 10 0 6 5 10 10 10
			6 0 10 -4 10 -10z m-5654 -37 c-7 -7 -26 7 -26 19 0 6 6 6 15 -2 9 -7 13 -15
			11 -17z m5684 18 c0 -6 -4 -13 -10 -16 -5 -3 -10 1 -10 9 0 9 5 16 10 16 6 0
			10 -4 10 -9z m156 -75 c-26 -41 -55 -80 -64 -88 -15 -11 -15 -10 1 8 10 13 15
			29 11 40 -4 14 -3 15 4 6 7 -10 19 3 48 51 21 36 41 64 43 62 2 -2 -18 -37
			-43 -79z m-167 43 c13 2 13 0 1 -14 -10 -13 -15 -13 -21 -3 -7 10 -9 10 -9 1
			0 -9 -6 -7 -18 5 -24 22 -17 35 11 20 12 -7 29 -11 36 -9z m-94 1 c3 -5 16
			-10 28 -10 15 0 18 -3 10 -11 -8 -8 -18 -6 -35 5 -14 9 -28 13 -31 9 -4 -3 -7
			-1 -7 5 0 15 26 16 35 2z m-3586 -33 c20 -13 48 -31 64 -41 26 -16 27 -20 27
			-91 0 -41 -2 -75 -4 -75 -14 0 -113 116 -123 143 -13 36 -17 87 -6 87 4 0 23
			-11 42 -23z m3556 -7 c3 -5 1 -10 -4 -10 -6 0 -11 5 -11 10 0 6 2 10 4 10 3 0
			8 -4 11 -10z m225 -10 c6 9 10 10 10 3 0 -11 -26 -43 -35 -43 -3 0 -1 8 2 18
			6 15 5 15 -10 4 -8 -8 -13 -21 -10 -30 4 -14 3 -14 -5 -3 -7 10 -6 21 5 38 12
			18 18 21 25 11 6 -10 10 -10 18 2z m-130 -10 c0 -9 -23 -30 -33 -30 -4 0 -5 5
			-2 10 3 6 -3 10 -14 10 -12 0 -21 4 -21 8 0 5 16 8 35 8 19 -1 35 -3 35 -6z
			m-5781 -44 c-3 -3 -11 5 -18 17 -13 21 -12 21 5 5 10 -10 16 -20 13 -22z
			m5648 18 c-3 -3 -12 -4 -19 -1 -8 3 -5 6 6 6 11 1 17 -2 13 -5z m76 -11 c-3
			-7 -9 -13 -13 -13 -4 0 -10 6 -13 13 -3 7 3 13 13 13 10 0 16 -6 13 -13z
			m-5478 -13 c-3 -5 -12 -10 -18 -10 -7 0 -6 4 3 10 19 12 23 12 15 0z m5516 -4
			c11 6 11 4 0 -10 -11 -13 -16 -14 -22 -4 -5 7 -9 18 -9 23 0 6 4 4 9 -4 5 -8
			14 -10 22 -5z m-96 -6 c-3 -5 -11 -10 -16 -10 -6 0 -7 5 -4 10 3 6 11 10 16
			10 6 0 7 -4 4 -10z m188 -15 c-3 -9 -8 -14 -10 -11 -3 3 -2 9 2 15 9 16 15 13
			8 -4z m-269 -11 c3 -8 2 -12 -4 -9 -6 3 -10 10 -10 16 0 14 7 11 14 -7z m128
			-6 c-7 -7 -12 -8 -12 -2 0 14 12 26 19 19 2 -3 -1 -11 -7 -17z m98 -22 c-30
			-49 -36 -46 -8 3 12 22 24 38 26 36 3 -2 -6 -20 -18 -39z m-120 30 c0 -2 -7
			-7 -16 -10 -8 -3 -12 -2 -9 4 6 10 25 14 25 6z m205 -16 c-3 -5 -12 -10 -18
			-10 -7 0 -6 4 3 10 19 12 23 12 15 0z m-5586 -73 c29 -52 26 -57 -8 -11 -15
			21 -26 43 -24 47 6 10 6 10 32 -36z m205 1 c8 -5 7 -8 -1 -8 -7 0 -17 9 -23
			19 -14 27 -12 41 2 16 6 -11 16 -23 22 -27z m5173 36 c-3 -3 -12 -4 -19 -1 -8
			3 -5 6 6 6 11 1 17 -2 13 -5z m-76 -31 c12 -16 12 -17 -2 -6 -24 19 -32 3 -8
			-18 20 -17 20 -17 -12 -33 -18 -9 -38 -16 -45 -16 -15 0 -36 -34 -27 -44 3 -3
			1 -6 -5 -6 -16 0 -15 12 3 36 18 24 19 38 3 28 -7 -4 -2 5 11 19 14 15 27 24
			30 21 3 -3 -3 -12 -13 -20 -20 -14 -20 -14 0 -14 28 0 46 20 33 36 -11 13 -4
			34 10 34 5 0 15 -8 22 -17z m163 -1 c3 -5 -1 -9 -9 -9 -8 0 -12 4 -9 9 3 4 7
			8 9 8 2 0 6 -4 9 -8z m-5544 -67 c0 -4 -9 4 -20 18 -11 14 -20 28 -20 32 0 4
			9 -4 20 -18 11 -14 20 -28 20 -32z m5422 24 c-14 -16 -28 -27 -30 -24 -3 3 3
			12 14 20 15 12 16 16 5 24 -9 6 -6 9 12 9 l25 0 -26 -29z m-5277 11 c-3 -5
			-11 -10 -16 -10 -6 0 -7 5 -4 10 3 6 11 10 16 10 6 0 7 -4 4 -10z m5385 -30
			c-7 -16 -16 -30 -21 -30 -5 0 -1 15 9 34 21 41 30 39 12 -4z m-5178 -27 c16
			-17 17 -21 4 -19 -8 1 -19 6 -23 10 -8 7 -9 11 -12 37 0 5 -5 7 -11 4 -6 -4
			-7 1 -3 11 5 15 7 14 16 -2 5 -11 19 -29 29 -41z m5218 36 c0 -6 -4 -7 -10 -4
			-5 3 -10 11 -10 16 0 6 5 7 10 4 6 -3 10 -11 10 -16z m-469 -25 c-11 -15 -21
			-21 -21 -14 0 15 31 52 38 46 2 -3 -5 -17 -17 -32z m396 12 c-10 -15 -12 -27
			-6 -35 5 -6 1 -4 -8 4 -16 13 -15 16 2 35 25 27 31 25 12 -4z m-5369 -21 c-3
			-3 -9 2 -12 12 -6 14 -5 15 5 6 7 -7 10 -15 7 -18z m4797 7 c-3 -3 -11 0 -18
			7 -9 10 -8 11 6 5 10 -3 15 -9 12 -12z m443 -29 c-11 -12 -26 -19 -34 -16 -14
			5 -20 -12 -6 -20 4 -2 1 -2 -7 0 -8 2 -11 -2 -8 -11 4 -10 1 -13 -9 -9 -17 6
			-18 20 -2 25 6 2 12 15 13 29 1 17 8 25 24 27 14 2 21 0 17 -7 -4 -5 -14 -7
			-23 -4 -15 6 -15 5 -3 -8 12 -14 16 -14 31 -1 10 8 15 22 12 31 -4 14 -3 14 6
			1 7 -11 5 -20 -11 -37z m182 27 c0 -5 -5 -10 -11 -10 -5 0 -7 5 -4 10 3 6 8
			10 11 10 2 0 4 -4 4 -10z m-5610 -30 c6 -11 8 -20 6 -20 -3 0 -10 9 -16 20 -6
			11 -8 20 -6 20 3 0 10 -9 16 -20z m4930 6 c0 -2 -8 -10 -17 -17 -16 -13 -17
			-12 -4 4 13 16 21 21 21 13z m387 -2 c-3 -3 -12 -4 -19 -1 -8 3 -5 6 6 6 11 1
			17 -2 13 -5z m203 -23 c11 -21 2 -61 -9 -42 -5 8 -13 6 -27 -4 -18 -14 -18
			-16 -1 -26 9 -5 17 -15 17 -21 0 -7 -7 -5 -17 4 -15 13 -53 21 -53 12 0 -12
			25 -54 32 -54 13 0 9 18 -4 23 -7 2 -10 8 -6 12 4 4 14 1 22 -8 13 -13 12 -17
			-8 -36 -25 -23 -36 -27 -36 -10 0 5 5 7 10 4 6 -3 10 -1 10 4 0 10 -14 15 -32
			12 -5 0 -8 4 -8 10 0 6 -23 -12 -51 -40 -75 -75 -71 -62 6 22 37 39 71 71 74
			70 3 0 12 5 19 13 7 8 8 14 2 14 -5 0 2 14 17 30 14 17 28 30 29 30 2 0 8 -9
			14 -19z m-5399 -8 c13 -16 12 -17 -3 -4 -10 7 -18 15 -18 17 0 8 8 3 21 -13z
			m5429 -33 c-38 -48 -51 -53 -18 -7 29 42 42 56 47 51 2 -1 -11 -21 -29 -44z
			m-669 27 c-6 -8 -7 -18 -3 -22 4 -5 2 -5 -4 -2 -6 4 -22 -5 -34 -18 -26 -28
			-17 -34 12 -8 10 9 21 14 24 11 2 -3 -13 -20 -36 -38 -22 -17 -40 -38 -40 -46
			0 -9 -5 -12 -10 -9 -6 3 -13 -1 -16 -10 -4 -9 -13 -14 -21 -11 -9 4 -17 -1
			-20 -14 -3 -11 -9 -17 -14 -14 -5 3 -9 -3 -9 -13 -1 -17 -1 -17 -11 1 -9 15
			-6 23 20 46 17 16 39 31 50 35 11 3 25 12 31 20 16 20 3 19 -16 0 -9 -8 -20
			-15 -26 -15 -6 0 7 15 28 34 22 18 53 45 69 59 33 29 43 34 26 14z m419 -7
			c-20 -13 -33 -13 -25 0 3 6 14 10 23 10 15 0 15 -2 2 -10z m-4826 -8 c3 -5 -1
			-9 -9 -9 -8 0 -12 4 -9 9 3 4 7 8 9 8 2 0 6 -4 9 -8z m4786 5 c0 -2 -10 -12
			-22 -23 l-23 -19 19 23 c18 21 26 27 26 19z m-2125 -36 c3 -5 1 -12 -5 -16 -5
			-3 -10 1 -10 9 0 18 6 21 15 7z m-2953 -18 c8 -10 18 -25 22 -33 5 -9 2 -8 -7
			3 -18 21 -31 22 -23 1 3 -9 2 -12 -5 -9 -6 4 -8 14 -4 23 3 8 0 19 -7 24 -8 4
			-8 8 -2 8 6 0 18 -8 26 -17z m4508 -4 c-12 -22 -37 -35 -47 -25 -9 8 27 46 44
			46 11 0 11 -4 3 -21z m650 11 c0 -5 -4 -10 -10 -10 -5 0 -10 5 -10 10 0 6 5
			10 10 10 6 0 10 -4 10 -10z m-145 -22 c-2 -13 -8 -22 -14 -20 -7 1 -20 -6 -29
			-16 -9 -10 -13 -11 -7 -2 8 12 48 59 51 60 0 0 0 -10 -1 -22z m-4492 -41 c-5
			-8 -8 -7 -11 1 -2 7 -8 12 -13 12 -6 0 -6 -8 1 -19 5 -11 10 -30 10 -42 0 -22
			0 -22 -15 -3 -18 23 -19 71 -2 77 16 6 38 -13 30 -26z m2452 13 c3 -6 -1 -7
			-9 -4 -10 4 -16 1 -16 -7 0 -7 -3 -10 -6 -6 -7 7 4 27 16 27 5 0 12 -4 15 -10z
			m-3012 -25 c23 -32 17 -32 -13 0 -13 14 -19 25 -14 25 5 0 17 -12 27 -25z
			m737 0 c0 -22 -4 -25 -34 -25 -32 0 -46 13 -46 41 0 5 18 9 40 9 36 0 40 -2
			40 -25z m400 10 c0 -11 -11 -15 -40 -15 -29 0 -40 4 -40 15 0 11 11 15 40 15
			29 0 40 -4 40 -15z m3400 -21 c-18 -21 -24 -10 -9 18 8 14 14 18 17 10 2 -7
			-2 -19 -8 -28z m404 -43 c-21 -23 -42 -41 -47 -41 -5 0 10 20 34 45 53 56 64
			52 13 -4z m-1844 29 c0 -5 -2 -10 -4 -10 -3 0 -8 5 -11 10 -3 6 -1 10 4 10 6
			0 11 -4 11 -10z m1040 -9 c0 -5 -9 -11 -20 -14 -17 -4 -18 -2 -9 14 9 18 29
			18 29 0z m1120 9 c0 -5 -4 -10 -10 -10 -5 0 -10 5 -10 10 0 6 5 10 10 10 6 0
			10 -4 10 -10z m-5209 -22 c11 -21 11 -22 -4 -9 -10 7 -17 17 -17 22 0 15 9 10
			21 -13z m5232 7 c-3 -9 -8 -14 -10 -11 -3 3 -2 9 2 15 9 16 15 13 8 -4z
			m-4648 -24 c-6 -5 -25 10 -25 20 0 5 6 4 14 -3 8 -7 12 -15 11 -17z m980 -1
			c21 -16 44 -30 51 -30 8 0 14 -4 14 -10 0 -5 -7 -10 -15 -10 -8 0 -15 5 -15
			11 0 5 -4 8 -9 5 -12 -8 -102 44 -95 55 10 16 30 10 69 -21z m1360 20 c11 -17
			-5 -32 -21 -19 -15 12 -19 6 -27 -41 -3 -16 -5 -10 -6 16 0 22 2 44 6 47 10
			10 41 8 48 -3z m2250 -21 c-4 -11 -2 -19 6 -19 8 0 8 -4 -1 -15 -12 -14 -15
			-14 -31 1 -11 10 -19 22 -19 28 0 6 5 4 10 -4 9 -13 11 -13 20 0 5 8 8 21 5
			28 -3 7 0 10 6 7 5 -4 7 -15 4 -26z m-4975 -31 c24 -29 59 -66 77 -83 18 -16
			62 -58 99 -92 36 -35 70 -63 74 -63 5 0 20 -11 33 -24 14 -14 27 -23 30 -20 2
			2 10 -3 18 -13 12 -15 12 -16 -1 -8 -8 6 -17 10 -20 10 -28 1 -281 230 -346
			313 -42 53 -10 36 36 -20z m4376 25 c-10 -10 -19 5 -10 18 6 11 8 11 12 0 2
			-7 1 -15 -2 -18z m-3946 3 c0 -8 -4 -18 -10 -21 -5 -3 -10 3 -10 14 0 12 5 21
			10 21 6 0 10 -6 10 -14z m3747 -18 c-3 -7 -5 -2 -5 12 0 14 2 19 5 13 2 -7 2
			-19 0 -25z m93 7 c0 -14 -4 -25 -9 -25 -4 0 -6 11 -3 25 2 14 6 25 8 25 2 0 4
			-11 4 -25z m26 -2 c-10 -10 -19 5 -10 18 6 11 8 11 12 0 2 -7 1 -15 -2 -18z
			m714 17 c0 -5 -5 -10 -11 -10 -5 0 -7 5 -4 10 3 6 8 10 11 10 2 0 4 -4 4 -10z
			m-4520 -26 c0 -22 -2 -25 -15 -14 -12 10 -13 16 -4 26 16 20 19 18 19 -12z
			m4393 -6 c-24 -28 -27 -62 -6 -80 14 -11 15 -10 8 11 -6 21 -5 22 8 10 11 -10
			12 -18 5 -27 -9 -10 -15 -9 -30 5 -10 9 -16 23 -13 31 4 10 0 12 -12 8 -10 -4
			-3 8 16 28 38 40 56 49 24 14z m-659 -14 c3 -9 6 -25 6 -37 -1 -17 -4 -15 -15
			12 -18 39 -18 41 -6 41 5 0 12 -7 15 -16z m514 -7 c-2 -21 -28 -35 -28 -15 0
			4 5 8 11 8 6 0 9 7 5 15 -3 8 -1 15 4 15 5 0 9 -10 8 -23z m190 -12 c0 -14 -4
			-25 -7 -25 -4 0 -7 13 -6 29 0 16 3 27 6 25 4 -2 7 -15 7 -29z m-282 8 c9 -10
			24 -18 32 -18 9 0 16 -6 18 -13 1 -7 0 -8 -3 -2 -8 17 -23 11 -16 -7 4 -10 2
			-14 -5 -9 -6 3 -15 -2 -21 -11 -6 -10 -11 -13 -11 -6 0 6 4 14 10 18 13 8 0
			37 -14 32 -7 -3 -12 4 -12 14 0 23 0 23 22 2z m254 7 c0 -5 -5 -10 -11 -10 -5
			0 -7 5 -4 10 3 6 8 10 11 10 2 0 4 -4 4 -10z m-4930 -20 c0 -5 -2 -10 -4 -10
			-3 0 -8 5 -11 10 -3 6 -1 10 4 10 6 0 11 -4 11 -10z m4632 -12 c-7 -7 -12 -8
			-12 -2 0 14 12 26 19 19 2 -3 -1 -11 -7 -17z m236 -28 c7 -12 10 -26 6 -32 -5
			-8 -1 -9 12 -4 13 5 10 -2 -11 -22 l-30 -29 -29 31 c-15 17 -25 26 -22 19 4
			-7 -3 -17 -14 -23 -17 -9 -19 -14 -9 -26 8 -10 8 -14 0 -14 -6 0 -11 5 -11 10
			0 6 -5 10 -10 10 -7 0 -7 -7 0 -20 6 -11 16 -18 23 -15 7 4 4 0 -6 -8 -11 -9
			-15 -21 -10 -33 6 -16 5 -17 -9 -4 -11 10 -13 19 -6 27 11 13 3 33 -13 33 -6
			0 -7 -5 -3 -11 3 -6 1 -15 -7 -20 -11 -6 -10 -12 5 -28 20 -22 18 -25 -8 -15
			-9 3 -14 10 -11 14 2 4 -6 8 -18 8 -16 0 -23 -6 -23 -19 0 -11 6 -17 13 -15 8
			3 10 -1 6 -12 -6 -15 -5 -15 10 -3 27 21 28 8 2 -17 -18 -17 -22 -18 -21 -6 0
			9 -10 23 -24 32 l-25 16 19 -22 c17 -19 17 -22 3 -16 -11 4 -17 1 -17 -7 0
			-10 -5 -9 -17 4 -16 15 -15 18 2 37 14 16 20 17 27 8 8 -13 9 -11 12 15 1 6
			10 11 19 10 12 0 16 4 13 12 -3 8 10 25 27 38 18 14 53 46 79 71 26 25 50 46
			55 46 4 0 14 -9 21 -20z m-268 6 c0 -2 -8 -10 -17 -17 -16 -13 -17 -12 -4 4
			13 16 21 21 21 13z m41 -13 c-5 -10 -12 -26 -15 -35 -3 -10 -10 -18 -16 -18
			-6 0 -8 5 -4 11 3 6 0 15 -7 20 -11 7 -9 10 9 15 12 4 22 10 22 15 0 5 5 9 10
			9 7 0 7 -6 1 -17z m-4121 -3 c0 -5 -8 -10 -17 -10 -15 0 -16 2 -3 10 19 12 20
			12 20 0z m3765 0 c3 -5 1 -10 -4 -10 -6 0 -11 5 -11 10 0 6 2 10 4 10 3 0 8
			-4 11 -10z m-2715 -41 c0 8 2 12 5 9 3 -3 2 -13 -1 -22 -5 -14 -9 -15 -15 -4
			-5 7 -9 18 -9 23 0 6 5 3 10 -5 8 -12 10 -12 10 -1z m21 -35 c-7 -31 -9 -34
			-10 -12 -1 27 9 62 15 55 3 -2 0 -22 -5 -43z m2725 34 c-10 -6 -22 -6 -26 -2
			-5 5 3 10 18 11 22 1 24 0 8 -9z m-4156 -63 c8 -10 9 -15 1 -15 -6 0 -11 -5
			-11 -11 0 -6 7 -8 16 -5 14 5 15 4 4 -9 -7 -9 -8 -15 -2 -15 6 0 19 -3 29 -7
			16 -6 17 -5 3 13 -14 18 -14 18 2 5 14 -10 15 -17 7 -33 -9 -18 -8 -18 10 -9
			17 9 19 9 15 -3 -5 -14 72 -76 96 -76 6 0 8 -4 5 -10 -3 -5 0 -10 8 -10 7 0
			45 -24 83 -52 38 -29 81 -61 94 -71 37 -27 1 -8 -47 25 -24 16 -43 25 -43 21
			0 -4 -4 -2 -9 6 -5 8 -21 15 -36 17 -15 2 -26 1 -24 -1 33 -32 84 -63 97 -58
			15 4 15 3 2 -6 -12 -9 -13 -11 -1 -11 8 0 12 -3 8 -6 -6 -6 -103 58 -152 101
			l-30 27 33 -22 c29 -19 36 -21 47 -9 12 12 11 14 -10 15 -14 1 -34 12 -44 25
			-17 21 -21 22 -36 9 -17 -14 -17 -13 -6 8 8 14 8 22 1 22 -17 0 -108 74 -115
			93 -4 10 -13 16 -20 14 -7 -3 -12 1 -11 11 0 10 -5 16 -14 14 -8 -2 -11 0 -7
			5 5 4 13 9 18 9 5 1 12 2 15 3 3 0 -8 13 -23 27 l-28 26 31 -21 c17 -11 37
			-27 44 -36z m437 33 c-3 -8 -6 -5 -6 6 -1 11 2 17 5 13 3 -3 4 -12 1 -19z
			m4011 3 c3 -8 0 -11 -7 -7 -6 4 -11 3 -11 -1 0 -8 -24 -34 -98 -104 -25 -24
			-96 -75 -132 -94 -8 -4 1 6 20 23 19 17 30 31 24 32 -6 0 -17 -7 -24 -15 -9
			-11 -16 -13 -24 -5 -7 7 -6 14 3 23 10 10 11 8 5 -8 -7 -18 -6 -18 9 -6 9 7
			14 17 11 22 -8 13 20 11 34 -3 9 -9 12 -9 12 1 0 7 5 9 10 6 6 -3 10 -1 10 5
			0 7 -8 9 -20 5 -25 -8 -27 17 -3 36 15 12 16 12 11 -3 -4 -10 -1 -19 9 -22 20
			-8 24 -4 26 30 2 22 8 30 25 32 16 3 22 8 18 18 -3 9 -1 12 4 9 6 -3 10 1 10
			9 0 9 -7 16 -16 16 -8 0 -13 4 -9 10 9 14 98 7 103 -9z m-1083 -51 c-3 -5 -10
			-10 -16 -10 -5 0 -9 5 -9 10 0 6 7 10 16 10 8 0 12 -4 9 -10z m105 0 c0 -5 -6
			-10 -14 -10 -8 0 -18 5 -21 10 -3 6 3 10 14 10 12 0 21 -4 21 -10z m1170 6 c0
			-2 -8 -10 -17 -17 -16 -13 -17 -12 -4 4 13 16 21 21 21 13z m-3213 -38 c-3 -7
			-5 -2 -5 12 0 14 2 19 5 13 2 -7 2 -19 0 -25z m2773 -4 c-8 -8 -23 -20 -34
			-25 -13 -6 -10 0 9 15 34 29 43 33 25 10z m-551 -28 c-2 -2 -17 -6 -32 -10
			-34 -8 -28 10 7 23 18 7 37 -3 25 -13z m-332 -18 c-3 -8 -6 -5 -6 6 -1 11 2
			17 5 13 3 -3 4 -12 1 -19z m-644 -65 c7 -36 -5 -50 -23 -28 -7 8 -20 15 -29
			16 -11 0 -12 2 -3 6 10 4 10 8 0 20 -11 14 -10 15 10 9 17 -6 22 -3 22 10 0
			27 16 4 23 -33z m1732 12 c-23 -19 -26 -24 -12 -25 9 0 17 4 17 9 0 13 27 21
			45 15 14 -6 13 -8 -2 -19 -9 -7 -24 -10 -33 -7 -8 3 -12 2 -8 -3 9 -10 -10
			-35 -26 -35 -6 0 -4 5 4 10 13 8 12 11 -5 24 -19 14 -19 14 5 35 14 11 30 20
			35 21 6 0 -3 -11 -20 -25z m85 11 c-4 -4 -16 -4 -26 2 -16 9 -14 10 8 9 15 -1
			23 -6 18 -11z m-120 1 c0 -2 -10 -12 -22 -23 l-23 -19 19 23 c18 21 26 27 26
			19z m-1053 -39 c-3 -8 -6 -5 -6 6 -1 11 2 17 5 13 3 -3 4 -12 1 -19z m823 16
			c0 -8 -19 -13 -24 -6 -3 5 1 9 9 9 8 0 15 -2 15 -3z m-125 -24 c-3 -5 -12 -10
			-18 -10 -7 0 -6 4 3 10 19 12 23 12 15 0z m351 -2 c4 -7 3 -8 -4 -4 -7 4 -12
			2 -12 -3 0 -6 -5 -11 -11 -11 -8 0 -8 5 1 15 15 18 17 18 26 3z m-4041 -9 c4
			-6 14 -8 22 -5 8 3 12 2 9 -3 -3 -5 3 -11 14 -14 11 -3 20 -11 19 -19 0 -10
			-2 -10 -6 0 -2 6 -10 12 -16 12 -7 0 -25 9 -42 20 -16 11 -25 20 -18 20 6 0
			15 -5 18 -11z m3535 7 c0 -3 -4 -8 -10 -11 -5 -3 -10 -1 -10 4 0 6 5 11 10 11
			6 0 10 -2 10 -4z m430 -17 c-27 -21 -71 -47 -55 -32 19 18 68 53 74 53 3 0 -5
			-9 -19 -21z m-540 -19 c0 -5 -4 -10 -10 -10 -5 0 -10 5 -10 10 0 6 5 10 10 10
			6 0 10 -4 10 -10z m-3313 -37 c0 -8 -6 -9 -19 -2 -10 5 -18 11 -18 12 0 2 8 3
			18 3 10 0 19 -6 19 -13z m990 -25 c-3 -8 -6 -5 -6 6 -1 11 2 17 5 13 3 -3 4
			-12 1 -19z m2458 11 c11 -16 1 -19 -13 -3 -7 8 -8 14 -3 14 5 0 13 -5 16 -11z
			m308 -3 c4 -10 1 -13 -9 -9 -7 3 -14 -1 -14 -8 0 -7 -3 -9 -6 -6 -4 4 -1 13 6
			22 15 19 17 19 23 1z m-3697 -27 c3 -6 -5 -3 -20 6 -14 10 -26 19 -26 22 0 7
			39 -17 46 -28z m-135 -36 c13 -16 12 -17 -3 -5 -9 8 -23 10 -29 6 -8 -4 -9 -3
			-5 4 10 17 21 15 37 -5z m3399 7 c0 -5 -5 -10 -11 -10 -5 0 -7 5 -4 10 3 6 8
			10 11 10 2 0 4 -4 4 -10z m145 -10 c-3 -5 -12 -10 -18 -10 -7 0 -6 4 3 10 19
			12 23 12 15 0z m-205 -20 c-8 -5 -19 -10 -25 -10 -5 0 -3 5 5 10 8 5 20 10 25
			10 6 0 3 -5 -5 -10z m335 -10 c-3 -5 -1 -10 6 -10 7 0 10 -2 7 -5 -3 -3 -13
			-2 -22 1 -14 5 -15 9 -4 15 17 11 20 11 13 -1z m-3395 -10 c0 -5 -7 -7 -15 -4
			-8 4 -15 8 -15 10 0 2 7 4 15 4 8 0 15 -4 15 -10z m3240 6 c0 -2 -7 -7 -16
			-10 -8 -3 -12 -2 -9 4 6 10 25 14 25 6z m-3385 -16 c3 -6 -1 -7 -9 -4 -18 7
			-21 14 -7 14 6 0 13 -4 16 -10z m972 -37 c-3 -10 -5 -2 -5 17 0 19 2 27 5 18
			2 -10 2 -26 0 -35z m-786 24 c-1 -12 -15 -9 -19 4 -3 6 1 10 8 8 6 -3 11 -8
			11 -12z m3279 -11 c0 -2 -7 -7 -16 -10 -8 -3 -12 -2 -9 4 6 10 25 14 25 6z
			m110 -10 c0 -2 -7 -7 -16 -10 -8 -3 -12 -2 -9 4 6 10 25 14 25 6z m-3495 -24
			c-3 -3 -11 0 -18 7 -9 10 -8 11 6 5 10 -3 15 -9 12 -12z m-60 -2 c4 -6 11 -7
			17 -4 7 4 8 2 4 -5 -6 -9 -12 -9 -24 1 -10 7 -19 14 -21 15 -2 2 1 3 7 3 6 0
			14 -5 17 -10z m245 0 c0 -5 -2 -10 -4 -10 -3 0 -8 5 -11 10 -3 6 -1 10 4 10 6
			0 11 -4 11 -10z m2970 0 c-8 -5 -19 -10 -25 -10 -5 0 -3 5 5 10 8 5 20 10 25
			10 6 0 3 -5 -5 -10z m-3165 -20 c-3 -5 -12 -10 -18 -10 -7 0 -6 4 3 10 19 12
			23 12 15 0z m3115 -10 c-24 -15 -36 -11 -14 4 10 8 21 12 24 10 2 -3 -2 -9
			-10 -14z m-2995 -30 c3 -5 1 -10 -4 -10 -6 0 -11 5 -11 10 0 6 2 10 4 10 3 0
			8 -4 11 -10z m844 -55 c0 -5 -6 1 -14 15 -8 14 -14 30 -14 35 0 6 6 -1 14 -15
			8 -14 14 -29 14 -35z m-755 -7 c-5 -8 -1 -9 12 -4 14 5 16 4 7 -5 -13 -13 -37
			-3 -28 12 4 5 8 9 11 9 3 0 2 -5 -2 -12z m-13 -25 c13 -17 13 -17 -6 -3 -11 8
			-22 16 -24 17 -2 2 0 3 6 3 6 0 17 -8 24 -17z m80 -10 c13 -17 13 -17 -6 -3
			-11 8 -22 16 -24 17 -2 2 0 3 6 3 6 0 17 -8 24 -17z m719 -4 c0 -6 -4 -7 -10
			-4 -5 3 -10 11 -10 16 0 6 5 7 10 4 6 -3 10 -11 10 -16z m-450 -113 c0 -2 -7
			-7 -16 -10 -8 -3 -12 -2 -9 4 6 10 25 14 25 6z"/>
			<path d="M3120 7144 l-25 -15 25 7 c14 3 29 10 35 15 15 14 -7 10 -35 -7z"/>
			<path d="M3448 7073 c7 -3 16 -2 19 1 4 3 -2 6 -13 5 -11 0 -14 -3 -6 -6z"/>
			<path d="M3255 7045 c-154 -29 -409 -95 -413 -106 -2 -5 -11 -9 -19 -9 -9 0
			-14 -3 -10 -6 3 -4 82 15 174 41 92 27 229 60 303 76 74 15 124 27 110 27 -14
			0 -79 -10 -145 -23z"/>
			<path d="M4623 7063 c9 -2 23 -2 30 0 6 3 -1 5 -18 5 -16 0 -22 -2 -12 -5z"/>
			<path d="M4678 7053 c7 -3 16 -2 19 1 4 3 -2 6 -13 5 -11 0 -14 -3 -6 -6z"/>
			<path d="M5090 6905 c14 -8 30 -14 35 -14 6 0 -1 6 -15 14 -14 8 -29 14 -35
			14 -5 0 1 -6 15 -14z"/>
			<path d="M2620 6894 l-25 -15 25 7 c14 3 32 10 40 15 13 7 13 8 0 8 -8 0 -26
			-6 -40 -15z"/>
			<path d="M5150 6880 c8 -5 20 -10 25 -10 6 0 3 5 -5 10 -8 5 -19 10 -25 10 -5
			0 -3 -5 5 -10z"/>
			<path d="M2525 6859 c-54 -22 -75 -36 -35 -24 37 12 107 44 95 44 -5 0 -32 -9
			-60 -20z"/>
			<path d="M2847 6851 c-43 -16 -81 -32 -85 -36 -4 -5 2 -5 13 -1 11 5 51 19 89
			32 65 23 91 35 70 33 -5 0 -44 -13 -87 -28z"/>
			<path d="M2580 6850 c-9 -6 -10 -10 -3 -10 6 0 15 5 18 10 8 12 4 12 -15 0z"/>
			<path d="M2398 6799 c-32 -16 -58 -32 -58 -34 0 -3 27 8 60 25 33 17 60 32 60
			35 0 7 2 8 -62 -26z"/>
			<path d="M2415 6774 c-60 -31 -144 -77 -185 -102 -135 -83 -402 -264 -396
			-269 3 -3 89 51 193 119 207 137 269 175 418 254 132 70 110 69 -30 -2z"/>
			<path d="M2675 6780 c-3 -6 1 -7 9 -4 18 7 21 14 7 14 -6 0 -13 -4 -16 -10z"/>
			<path d="M2495 6692 c-290 -151 -700 -430 -679 -463 3 -5 31 13 62 39 31 27
			86 68 122 92 36 24 101 69 145 101 108 77 223 147 385 235 74 41 131 74 125
			74 -5 0 -77 -35 -160 -78z"/>
			<path d="M5203 6754 c4 -4 37 -21 74 -38 129 -59 337 -187 483 -298 l65 -50
			-55 52 c-81 76 -264 194 -418 272 -123 61 -167 80 -149 62z"/>
			<path d="M2063 6467 c-33 -23 -46 -45 -15 -28 29 17 68 51 57 50 -5 -1 -24
			-11 -42 -22z"/>
			<path d="M5865 6334 c94 -91 228 -209 239 -212 17 -5 -118 121 -204 190 -41
			33 -57 43 -35 22z"/>
			<path d="M5173 6308 c217 -154 255 -179 243 -160 -8 13 -202 145 -236 161 -21
			9 -22 9 -7 -1z"/>
			<path d="M5430 6136 c0 -2 8 -10 18 -17 15 -13 16 -12 3 4 -13 16 -21 21 -21
			13z"/>
			<path d="M3581 6095 c-37 -43 -38 -46 -8 -41 12 1 22 10 22 19 0 8 4 19 9 24
			5 5 6 2 1 -7 -5 -8 -4 -12 0 -7 8 6 15 47 9 47 -1 0 -16 -16 -33 -35z"/>
			<path d="M3639 6113 c-13 -16 -12 -17 4 -4 16 13 21 21 13 21 -2 0 -10 -8 -17
			-17z"/>
			<path d="M3100 5353 c8 -3 24 -10 35 -15 20 -9 20 -9 1 6 -11 9 -27 16 -35 15
			-14 0 -14 -1 -1 -6z"/>
			<path d="M1300 6576 c0 -13 15 -46 34 -72 19 -27 55 -83 81 -124 50 -79 83
			-120 97 -120 5 0 -4 26 -21 58 -20 36 -23 48 -11 33 29 -34 34 -21 6 17 -12
			17 -27 28 -31 24 -5 -4 -5 1 -1 12 4 13 2 17 -8 13 -9 -4 -13 -1 -11 6 6 18
			-32 60 -46 51 -8 -5 -9 -3 -5 5 9 13 -58 121 -74 121 -6 0 -10 -11 -10 -24z"/>
			<path d="M1650 6146 c0 -9 9 -25 20 -36 11 -11 20 -25 20 -32 0 -6 3 -8 7 -5
			3 4 12 -1 19 -11 7 -9 15 -15 18 -12 3 3 -11 22 -30 42 -18 20 -34 41 -34 47
			0 5 -4 13 -10 16 -5 3 -10 -1 -10 -9z"/>
			<path d="M1966 5716 c6 -16 34 -30 34 -18 0 10 -22 32 -32 32 -4 0 -5 -6 -2
			-14z"/>
			<path d="M2320 5505 c0 -2 9 -9 19 -15 22 -11 51 -4 51 13 0 8 -3 8 -11 0 -8
			-8 -20 -8 -35 -3 -13 5 -24 8 -24 5z"/>
			<path d="M6245 6000 c-3 -6 1 -7 9 -4 18 7 21 14 7 14 -6 0 -13 -4 -16 -10z"/>
			<path d="M5993 5613 c1 -19 6 -28 11 -23 6 6 5 18 -2 32 -10 22 -10 21 -9 -9z"/>
			<path d="M5810 5595 c-7 -9 -11 -17 -9 -20 3 -2 10 5 17 15 14 24 10 26 -8 5z"/>
			<path d="M477 4533 c-4 -3 -7 -13 -7 -22 1 -13 3 -13 11 2 11 19 8 33 -4 20z"/>
			<path d="M456 4461 c-3 -5 -8 -31 -11 -58 l-4 -48 14 55 c13 52 14 72 1 51z"/>
			<path d="M501 4434 c0 -11 3 -14 6 -6 3 7 2 16 -1 19 -3 4 -6 -2 -5 -13z"/>
			<path d="M472 4294 c-7 -8 -12 -22 -9 -32 3 -13 7 -10 16 12 13 33 11 40 -7
			20z"/>
			<path d="M437 4253 c-4 -3 -7 -13 -7 -22 1 -13 3 -13 11 2 11 19 8 33 -4 20z"/>
			<path d="M460 4215 c0 -15 4 -24 10 -20 6 3 10 12 10 20 0 8 -4 17 -10 20 -6
			4 -10 -5 -10 -20z"/>
			<path d="M442 4185 c0 -16 2 -22 5 -12 2 9 2 23 0 30 -3 6 -5 -1 -5 -18z"/>
			<path d="M423 4165 c0 -22 2 -30 4 -17 2 12 2 30 0 40 -3 9 -5 -1 -4 -23z"/>
			<path d="M444 3965 c0 -103 1 -112 8 -64 5 32 5 86 0 120 -8 58 -8 53 -8 -56z"/>
			<path d="M415 3965 c0 -35 3 -58 7 -52 10 16 10 105 0 111 -4 2 -7 -24 -7 -59z"/>
			<path d="M411 3824 c0 -11 3 -14 6 -6 3 7 2 16 -1 19 -3 4 -6 -2 -5 -13z"/>
			<path d="M443 3800 c0 -25 2 -35 4 -22 2 12 2 32 0 45 -2 12 -4 2 -4 -23z"/>
			<path d="M428 3603 c5 -120 9 -128 11 -20 0 53 -2 97 -7 97 -4 0 -6 -35 -4
			-77z"/>
			<path d="M450 3560 c0 -19 3 -21 12 -12 9 9 9 15 0 24 -9 9 -12 7 -12 -12z"/>
			<path d="M437 3448 c-3 -9 0 -22 8 -28 11 -9 16 -7 25 10 13 24 4 43 -9 21 -7
			-11 -9 -11 -13 0 -3 10 -6 9 -11 -3z"/>
			<path d="M500 3090 c0 -5 5 -10 11 -10 5 0 7 5 4 10 -3 6 -8 10 -11 10 -2 0
			-4 -4 -4 -10z"/>
			<path d="M516 3012 c-2 -4 -1 -14 5 -22 7 -12 9 -10 9 8 0 23 -5 28 -14 14z"/>
			<path d="M592 2875 c0 -16 2 -22 5 -12 2 9 2 23 0 30 -3 6 -5 -1 -5 -18z"/>
			<path d="M604 2799 c-4 -7 -3 -9 4 -5 5 3 13 0 15 -6 4 -9 6 -10 6 -1 1 17
			-16 25 -25 12z"/>
			<path d="M570 2792 c0 -5 7 -15 15 -22 8 -7 15 -9 15 -6 0 4 -7 14 -15 22 -8
			9 -15 11 -15 6z"/>
			<path d="M610 2702 c0 -20 33 -86 37 -74 7 18 23 15 23 -5 0 -15 2 -15 9 -4
			15 23 2 42 -20 30 -17 -8 -20 -6 -25 21 -6 28 -24 53 -24 32z"/>
			<path d="M7330 4515 c0 -5 5 -17 10 -25 5 -8 10 -10 10 -5 0 6 -5 17 -10 25
			-5 8 -10 11 -10 5z"/>
			<path d="M7351 4434 c0 -11 3 -14 6 -6 3 7 2 16 -1 19 -3 4 -6 -2 -5 -13z"/>
			<path d="M7350 4376 c0 -8 5 -18 10 -21 6 -3 10 1 10 9 0 8 -4 18 -10 21 -5 3
			-10 -1 -10 -9z"/>
			<path d="M7328 3574 c2 -27 8 -51 12 -54 4 -3 10 -12 13 -20 4 -12 6 -12 6 2
			1 9 -3 20 -9 23 -5 3 -10 21 -10 38 0 18 -4 38 -9 46 -5 8 -7 -5 -3 -35z"/>
			<path d="M7292 3010 c0 -14 2 -19 5 -12 2 6 2 18 0 25 -3 6 -5 1 -5 -13z"/>
			<path d="M7270 2960 c0 -5 5 -10 11 -10 5 0 7 5 4 10 -3 6 -8 10 -11 10 -2 0
			-4 -4 -4 -10z"/>
			<path d="M7211 2754 c0 -11 3 -14 6 -6 3 7 2 16 -1 19 -3 4 -6 -2 -5 -13z"/>
			<path d="M7086 2570 c-12 -31 -14 -46 -5 -61 6 -12 8 -23 5 -26 -3 -3 -9 2
			-12 11 -5 13 -9 14 -14 5 -11 -16 -1 -39 15 -39 19 0 29 38 15 55 -8 10 -7 22
			5 51 8 20 14 39 11 41 -2 2 -11 -15 -20 -37z"/>
			<path d="M1288 5907 c-7 -12 -11 -26 -10 -30 1 -5 -2 -6 -7 -3 -5 4 -22 -11
			-38 -31 -15 -21 -32 -41 -37 -44 -5 -4 -5 -12 -1 -19 5 -8 4 -11 -2 -7 -6 4
			-13 -2 -16 -13 -3 -11 -1 -20 5 -20 13 0 119 113 141 149 16 28 16 29 -3 34
			-14 4 -24 -2 -32 -16z"/>
			<path d="M1047 5503 c-51 -77 -77 -126 -77 -145 0 -7 13 10 28 37 16 28 39 68
			53 90 65 102 62 115 -4 18z"/>
			<path d="M955 5329 c-4 -6 -5 -12 -2 -15 2 -3 7 2 10 11 7 17 1 20 -8 4z"/>
			<path d="M886 5125 c-9 -26 -7 -32 5 -12 6 10 9 21 6 23 -2 3 -7 -2 -11 -11z"/>
			<path d="M855 5039 c-4 -6 -5 -12 -2 -15 2 -3 7 2 10 11 7 17 1 20 -8 4z"/>
			<path d="M795 4853 c-27 -87 -46 -133 -54 -129 -4 3 -8 -4 -8 -15 -1 -10 2
			-19 8 -19 5 0 9 7 9 15 0 8 4 15 10 15 5 0 14 19 21 43 6 23 18 64 26 90 8 27
			13 50 10 53 -2 2 -12 -22 -22 -53z"/>
			<path d="M686 4560 c-4 -19 -15 -57 -24 -85 -19 -58 -17 -50 -26 -100 -4 -22
			-10 -52 -12 -68 -3 -15 -9 -25 -13 -23 -4 3 -6 -18 -5 -45 1 -27 -2 -49 -6
			-49 -4 0 -10 -9 -13 -20 -3 -11 -2 -18 3 -15 4 2 8 -32 9 -76 1 -44 -2 -78 -7
			-75 -4 2 -5 -18 -1 -47 10 -71 11 -119 1 -113 -5 3 -6 -9 -4 -26 3 -21 7 -26
			13 -17 6 9 8 -5 8 -36 -2 -72 9 -213 20 -265 6 -25 13 -66 16 -92 l6 -48 -32
			0 c-20 0 -29 -4 -26 -12 2 -7 13 -12 23 -10 58 10 75 15 67 21 -5 3 -14 24
			-21 46 -9 30 -9 41 1 47 9 5 8 15 -6 40 -13 24 -19 69 -25 168 -8 159 -7 510
			2 560 3 19 11 74 18 123 8 58 17 87 25 87 9 0 12 9 9 25 -3 13 0 41 5 60 6 20
			9 46 7 58 -3 17 -6 14 -12 -13z"/>
			<path d="M611 4364 c0 -11 3 -14 6 -6 3 7 2 16 -1 19 -3 4 -6 -2 -5 -13z"/>
			<path d="M684 4304 c3 -9 6 -20 6 -25 0 -6 4 -8 9 -5 12 8 2 46 -11 46 -6 0
			-7 -7 -4 -16z"/>
			<path d="M585 4240 c3 -5 8 -10 11 -10 2 0 4 5 4 10 0 6 -5 10 -11 10 -5 0 -7
			-4 -4 -10z"/>
			<path d="M580 3764 c0 -8 5 -12 10 -9 6 3 10 10 10 16 0 5 -4 9 -10 9 -5 0
			-10 -7 -10 -16z"/>
			<path d="M685 3750 c-4 -6 -3 -16 3 -22 6 -6 12 -6 17 2 4 6 3 16 -3 22 -6 6
			-12 6 -17 -2z"/>
			<path d="M601 3524 c0 -11 3 -14 6 -6 3 7 2 16 -1 19 -3 4 -6 -2 -5 -13z"/>
			<path d="M607 3304 c-7 -19 8 -83 17 -73 2 2 0 24 -3 49 -6 36 -8 41 -14 24z"/>
			<path d="M650 3270 c0 -5 7 -10 15 -10 8 0 15 5 15 10 0 6 -7 10 -15 10 -8 0
			-15 -4 -15 -10z"/>
			<path d="M660 3220 c0 -5 7 -10 15 -10 8 0 15 5 15 10 0 6 -7 10 -15 10 -8 0
			-15 -4 -15 -10z"/>
			<path d="M616 3197 c3 -10 9 -15 12 -12 3 3 0 11 -7 18 -10 9 -11 8 -5 -6z"/>
			<path d="M680 3173 c0 -13 5 -23 10 -23 13 0 13 11 0 30 -8 12 -10 11 -10 -7z"/>
			<path d="M631 3154 c0 -11 3 -14 6 -6 3 7 2 16 -1 19 -3 4 -6 -2 -5 -13z"/>
			<path d="M695 3101 c-6 -11 9 -23 19 -14 9 9 7 23 -3 23 -6 0 -12 -4 -16 -9z"/>
			<path d="M642 3080 c0 -14 2 -19 5 -12 2 6 2 18 0 25 -3 6 -5 1 -5 -13z"/>
			<path d="M660 2996 c0 -8 4 -17 9 -20 5 -4 7 3 4 14 -6 23 -13 26 -13 6z"/>
			<path d="M691 2884 c0 -11 3 -14 6 -6 3 7 2 16 -1 19 -3 4 -6 -2 -5 -13z"/>
			<path d="M6590 5910 c0 -5 5 -10 11 -10 5 0 7 5 4 10 -3 6 -8 10 -11 10 -2 0
			-4 -4 -4 -10z"/>
			<path d="M7005 4845 c4 -38 14 -86 22 -105 9 -19 15 -44 14 -55 -2 -15 0 -17
			9 -8 18 17 15 50 -10 139 -31 106 -44 117 -35 29z"/>
			<path d="M7050 4636 c0 -29 18 -44 26 -22 3 9 -1 23 -10 31 -15 15 -16 14 -16
			-9z"/>
			<path d="M7050 4559 c0 -5 5 -7 10 -4 6 3 10 8 10 11 0 2 -4 4 -10 4 -5 0 -10
			-5 -10 -11z"/>
			<path d="M7053 4455 c0 -33 2 -45 4 -27 2 18 2 45 0 60 -2 15 -4 0 -4 -33z"/>
			<path d="M7090 4371 c0 -17 5 -31 10 -31 6 0 10 11 10 24 0 14 -4 28 -10 31
			-6 4 -10 -7 -10 -24z"/>
			<path d="M7100 4235 c0 -8 5 -15 10 -15 6 0 10 7 10 15 0 8 -4 15 -10 15 -5 0
			-10 -7 -10 -15z"/>
			<path d="M7110 4180 c0 -5 4 -10 9 -10 6 0 13 5 16 10 3 6 -1 10 -9 10 -9 0
			-16 -4 -16 -10z"/>
			<path d="M7071 4154 c0 -11 3 -14 6 -6 3 7 2 16 -1 19 -3 4 -6 -2 -5 -13z"/>
			<path d="M7100 4126 c0 -9 5 -16 10 -16 6 0 10 4 10 9 0 6 -4 13 -10 16 -5 3
			-10 -1 -10 -9z"/>
			<path d="M7170 3866 c0 -8 5 -18 10 -21 6 -3 10 3 10 14 0 12 -4 21 -10 21 -5
			0 -10 -6 -10 -14z"/>
			<path d="M7100 3840 c0 -5 5 -10 11 -10 5 0 7 5 4 10 -3 6 -8 10 -11 10 -2 0
			-4 -4 -4 -10z"/>
			<path d="M7100 3791 c0 -7 -4 -9 -10 -6 -15 9 -12 -4 4 -20 12 -12 15 -12 20
			2 4 9 2 21 -4 27 -7 7 -10 6 -10 -3z"/>
			<path d="M7076 3689 c-4 -23 -4 -44 -1 -47 3 -3 5 6 6 19 0 22 1 23 9 4 7 -14
			8 -8 3 20 -8 53 -9 53 -17 4z"/>
			<path d="M7083 3590 c0 -25 2 -35 4 -22 2 12 2 32 0 45 -2 12 -4 2 -4 -23z"/>
			<path d="M7182 3320 c0 -14 2 -19 5 -12 2 6 2 18 0 25 -3 6 -5 1 -5 -13z"/>
			<path d="M7070 3291 c0 -6 4 -13 10 -16 6 -3 7 1 4 9 -7 18 -14 21 -14 7z"/>
			<path d="M7147 3285 c-4 -8 -2 -17 3 -20 6 -4 10 3 10 14 0 25 -6 27 -13 6z"/>
			<path d="M7071 3244 c0 -11 3 -14 6 -6 3 7 2 16 -1 19 -3 4 -6 -2 -5 -13z"/>
			<path d="M7133 3190 c0 -25 2 -35 4 -22 2 12 2 32 0 45 -2 12 -4 2 -4 -23z"/>
			<path d="M7031 3204 c0 -11 3 -14 6 -6 3 7 2 16 -1 19 -3 4 -6 -2 -5 -13z"/>
			<path d="M7050 3192 c0 -17 -4 -34 -10 -37 -5 -3 -10 1 -10 9 0 8 -4 17 -9 20
			-11 7 -2 -29 15 -62 11 -21 12 -18 19 33 3 31 4 59 1 63 -3 3 -6 -9 -6 -26z"/>
			<path d="M6992 3035 c0 -16 2 -22 5 -12 2 9 2 23 0 30 -3 6 -5 -1 -5 -18z"/>
			<path d="M6966 2921 c-4 -7 -5 -15 -2 -18 9 -9 19 4 14 18 -4 11 -6 11 -12 0z"/>
			<path d="M1779 5263 c-40 -47 -53 -74 -38 -87 9 -8 10 -8 5 2 -4 7 8 33 29 62
			40 55 42 65 4 23z"/>
			<path d="M1708 5124 c-4 -38 6 -36 20 4 7 22 7 29 -3 29 -7 0 -15 -15 -17 -33z"/>
			<path d="M837 4528 c-3 -18 -9 -64 -13 -103 -3 -38 -10 -77 -15 -87 -7 -13 -5
			-15 12 -11 11 3 18 11 15 18 -2 7 -1 57 4 111 9 100 7 132 -3 72z"/>
			<path d="M1826 4378 c-3 -13 -5 -34 -5 -48 1 -15 5 -7 10 19 9 47 6 68 -5 29z"/>
			<path d="M1010 4378 c-113 -11 -143 -28 -49 -28 76 0 190 17 204 31 11 11 -21
			10 -155 -3z"/>
			<path d="M801 4291 c-9 -6 -11 -14 -4 -26 9 -15 11 -14 15 9 3 14 5 26 4 26 0
			0 -7 -4 -15 -9z"/>
			<path d="M1812 4280 c0 -14 2 -19 5 -12 2 6 2 18 0 25 -3 6 -5 1 -5 -13z"/>
			<path d="M1801 4214 c0 -11 3 -14 6 -6 3 7 2 16 -1 19 -3 4 -6 -2 -5 -13z"/>
			<path d="M1805 3915 c2 -82 11 -190 20 -240 22 -124 78 -345 111 -435 45 -125
			146 -328 229 -460 102 -164 127 -188 35 -36 -80 133 -124 219 -197 381 -110
			245 -176 518 -193 805 l-8 135 3 -150z"/>
			<path d="M2366 3677 c3 -10 9 -15 12 -12 3 3 0 11 -7 18 -10 9 -11 8 -5 -6z"/>
			<path d="M2380 3625 c0 -5 21 -73 46 -150 78 -238 200 -485 319 -648 31 -42
			59 -77 61 -77 3 0 -3 12 -14 28 -117 168 -226 366 -291 529 -42 103 -50 143
			-29 143 6 0 8 3 4 8 -4 4 -13 7 -19 7 -7 0 -26 38 -44 85 -18 47 -32 81 -33
			75z"/>
			<path d="M2392 3210 c0 -14 4 -36 8 -50 8 -24 8 -24 8 5 0 17 -3 39 -8 50 -8
			18 -9 18 -8 -5z"/>
			<path d="M1841 2663 c22 -64 114 -238 203 -381 47 -75 255 -322 272 -322 12 0
			-1 20 -42 65 -75 82 -104 122 -96 130 4 5 2 5 -4 2 -21 -12 -234 326 -312 496
			-17 37 -34 67 -36 67 -3 0 4 -26 15 -57z"/>
			<path d="M1091 2628 c0 -21 4 -38 9 -38 6 0 10 4 10 9 0 5 3 17 7 27 4 11 3
			15 -5 11 -6 -4 -13 1 -15 10 -3 10 -5 1 -6 -19z"/>
			<path d="M2281 2603 c7 -12 15 -20 18 -17 3 2 -3 12 -13 22 -17 16 -18 16 -5
			-5z"/>
			<path d="M1407 2570 c-3 -11 -2 -20 3 -20 12 0 31 26 23 33 -11 12 -21 7 -26
			-13z"/>
			<path d="M1830 2575 c-1 -28 112 -226 183 -321 86 -115 385 -424 411 -424 3 0
			-54 60 -127 133 -192 190 -346 391 -445 582 -12 22 -21 36 -22 30z"/>
			<path d="M2300 2566 c0 -2 8 -10 18 -17 15 -13 16 -12 3 4 -13 16 -21 21 -21
			13z"/>
			<path d="M2330 2526 c0 -2 8 -10 18 -17 15 -13 16 -12 3 4 -13 16 -21 21 -21
			13z"/>
			<path d="M2360 2478 c0 -7 18 -42 40 -78 43 -69 53 -75 20 -10 -23 45 -25 54
			-8 44 13 -8 3 10 -21 38 -18 21 -31 23 -31 6z"/>
			<path d="M1330 2110 c17 -28 39 -61 50 -73 11 -12 18 -27 16 -34 -3 -7 -1 -13
			4 -13 5 0 11 -9 15 -20 6 -20 6 -20 27 0 12 11 18 23 14 27 -4 5 -13 0 -21
			-10 -11 -16 -13 -16 -19 -2 -3 9 -2 13 4 10 6 -3 10 -2 10 4 0 5 3 16 6 24 4
			12 0 14 -15 10 -16 -4 -21 -1 -21 15 0 12 -6 25 -13 29 -6 4 -25 25 -40 46
			-41 54 -51 45 -17 -13z"/>
			<path d="M2650 2114 c0 -12 88 -140 110 -159 12 -11 -5 22 -39 73 -58 85 -71
			101 -71 86z"/>
			<path d="M2341 1943 c0 -4 16 -21 35 -36 19 -16 34 -25 33 -20 0 4 -16 21 -35
			36 -19 16 -34 25 -33 20z"/>
			<path d="M1507 1900 c3 -11 7 -20 9 -20 2 0 4 9 4 20 0 11 -4 20 -9 20 -5 0
			-7 -9 -4 -20z"/>
			<path d="M2426 1866 c3 -8 13 -17 22 -21 13 -5 13 -2 -3 15 -21 24 -26 25 -19
			6z"/>
			<path d="M2416 1804 c-19 -18 -19 -24 -6 -44 8 -13 11 -13 19 -1 6 9 14 11 26
			3 10 -5 26 -7 36 -5 17 5 15 9 -13 34 -38 33 -41 34 -62 13z m45 -20 c17 -18
			19 -23 6 -18 -9 3 -17 11 -17 16 0 6 -7 5 -15 -2 -20 -17 -31 -6 -14 14 8 8
			14 15 15 16 0 0 11 -11 25 -26z"/>
			<path d="M2400 1733 c0 -15 19 -37 26 -31 3 4 -1 14 -10 23 -9 9 -16 13 -16 8z"/>
			<path d="M3947 5772 c4 -16 -2 -21 -27 -27 -19 -4 -36 -3 -43 4 -17 17 -41 13
			-55 -10 -14 -21 -9 -34 11 -34 7 0 13 -8 15 -17 2 -11 -10 -24 -35 -38 -111
			-61 -143 -87 -143 -116 0 -18 71 -10 104 11 14 10 29 15 32 12 3 -3 21 1 40 9
			30 13 38 13 64 -1 34 -18 44 -19 35 -4 -4 6 3 13 15 16 21 6 21 6 -7 29 -28
			23 -28 23 -5 24 13 0 33 -11 45 -26 44 -54 70 -75 80 -65 5 5 7 20 4 33 -7 26
			-74 102 -97 110 -12 4 -13 8 -2 20 10 13 9 18 -3 28 -9 7 -14 19 -11 26 3 7
			-1 18 -9 24 -11 9 -12 7 -8 -8z m-17 -101 c0 -5 -7 -12 -16 -15 -22 -9 -24 -8
			-24 9 0 8 9 15 20 15 11 0 20 -4 20 -9z"/>
			<path d="M3801 5376 c-7 -8 -8 -17 -3 -20 6 -3 13 1 16 10 9 23 2 28 -13 10z"/>
			<path d="M6406 4861 c-4 -5 -4 -16 0 -24 3 -8 -9 -31 -27 -53 l-33 -39 36 35
			c34 34 59 90 39 90 -5 0 -12 -4 -15 -9z"/>
			<path d="M6422 4788 c-15 -23 -18 -34 -9 -37 7 -2 16 -9 20 -15 5 -6 6 -1 2
			11 -3 12 -1 32 5 43 19 35 4 33 -18 -2z"/>
			<path d="M6722 4727 c-27 -102 -147 -311 -282 -492 -29 -38 -76 -108 -105
			-155 -29 -47 -71 -105 -92 -130 -21 -25 -45 -54 -53 -65 -14 -19 -14 -19 3 -6
			9 7 17 10 17 5 0 -14 100 120 134 181 19 33 65 101 103 152 158 213 300 475
			291 536 -2 15 -7 7 -16 -26z"/>
			<path d="M6455 4649 c10 -47 22 -57 17 -14 -2 19 -9 38 -14 41 -7 4 -8 -6 -3
			-27z"/>
			<path d="M6835 4470 c-21 -66 -65 -156 -111 -227 -50 -78 -75 -131 -65 -138
			23 -14 152 220 186 340 22 74 13 95 -10 25z"/>
			<path d="M5951 4498 c0 -9 8 -78 20 -155 11 -76 24 -214 28 -308 l7 -170 8 90
			c7 67 5 127 -8 235 -16 139 -52 343 -55 308z"/>
			<path d="M6162 3800 c-54 -58 -84 -96 -72 -93 23 6 127 115 153 161 10 18 17
			32 15 32 -2 -1 -45 -45 -96 -100z"/>
			<path d="M5418 3663 c7 -3 16 -2 19 1 4 3 -2 6 -13 5 -11 0 -14 -3 -6 -6z"/>
			<path d="M5557 3641 c56 -10 109 -21 118 -25 9 -3 14 -2 10 3 -3 5 -19 12 -35
			16 -17 4 -28 10 -26 13 2 4 -35 8 -83 9 l-86 2 102 -18z"/>
			<path d="M6750 3543 c-40 -4 -143 -33 -137 -39 2 -2 41 3 87 12 60 11 89 13
			106 6 17 -8 24 -8 28 3 5 13 -15 26 -37 23 -7 0 -28 -3 -47 -5z"/>
			<path d="M6878 3523 c18 -2 45 -2 60 0 15 2 0 4 -33 4 -33 0 -45 -2 -27 -4z"/>
			<path d="M6530 3481 c0 -43 -44 -318 -64 -401 -27 -109 -34 -168 -15 -120 22
			55 60 221 73 325 25 189 26 205 16 205 -6 0 -10 -4 -10 -9z"/>
			<path d="M6607 3400 c-3 -25 -13 -126 -22 -225 -9 -99 -21 -202 -26 -230 -6
			-27 -10 -67 -9 -87 1 -59 -52 -244 -76 -264 -7 -5 -20 -29 -29 -52 -10 -23
			-21 -39 -26 -36 -5 3 -6 -2 -3 -10 3 -8 -18 -59 -46 -113 -59 -110 -84 -146
			-95 -135 -5 4 -5 1 -1 -5 11 -19 -4 -39 -16 -22 -7 10 -8 8 -4 -7 4 -14 -5
			-33 -30 -62 -31 -36 -39 -41 -53 -30 -13 10 -14 10 -3 -2 15 -18 16 -34 0 -24
			-6 4 -8 3 -5 -3 4 -6 0 -16 -8 -23 -12 -10 -19 -10 -32 1 -16 13 -17 12 -5 -3
			11 -14 10 -20 -6 -36 -11 -11 -23 -18 -26 -16 -3 2 -4 1 -2 -2 2 -3 -14 -22
			-37 -42 -23 -20 -50 -47 -60 -60 -13 -16 -25 -21 -41 -17 -17 5 -18 4 -6 -5
			12 -10 13 -12 1 -17 -7 -3 -21 -13 -30 -22 -9 -9 -42 -37 -73 -64 -54 -45 -76
			-58 -63 -37 3 6 -1 7 -10 3 -11 -4 -13 -8 -5 -13 8 -5 6 -11 -5 -20 -18 -15
			-20 -30 -4 -30 9 0 76 47 127 91 7 6 16 8 20 4 4 -4 -1 -12 -11 -19 -9 -7 -17
			-21 -17 -30 0 -9 -6 -16 -14 -16 -16 0 -29 -27 -16 -35 12 -7 74 53 93 91 16
			31 16 31 -10 28 -26 -3 -26 -2 8 28 19 16 71 66 116 110 52 50 86 77 94 72 8
			-4 9 -3 5 5 -5 7 8 28 31 52 21 23 47 51 58 63 79 85 225 357 225 420 0 9 6
			19 14 22 25 10 75 157 100 294 8 47 21 158 28 247 6 89 15 160 18 158 3 -2 4
			25 2 58 -4 103 -7 116 -15 67z"/>
			<path d="M5880 3152 c-25 -53 -78 -143 -118 -201 -40 -57 -71 -105 -70 -107 3
			-2 24 16 135 117 19 17 38 26 48 23 8 -3 15 -1 15 6 0 6 -5 8 -12 4 -11 -7 -2
			6 64 95 75 100 52 96 -34 -6 -36 -43 -78 -89 -93 -103 -23 -22 -21 -16 14 45
			40 68 106 214 99 220 -2 2 -23 -40 -48 -93z"/>
			<path d="M6709 3120 c-1 -19 -3 -48 -5 -65 -1 -16 1 -43 4 -60 5 -22 8 -11 12
			45 3 41 3 84 -1 95 -6 16 -8 13 -10 -15z"/>
			<path d="M6752 3065 c0 -16 2 -22 5 -12 2 9 2 23 0 30 -3 6 -5 -1 -5 -18z"/>
			<path d="M5918 3025 c-3 -14 -2 -25 3 -25 12 0 39 30 38 43 0 9 -2 8 -6 0 -2
			-7 -9 -13 -14 -13 -6 0 -7 5 -4 10 3 6 2 10 -3 10 -5 0 -12 -11 -14 -25z"/>
			<path d="M6428 2890 c-7 -24 -3 -38 8 -28 3 4 4 17 2 30 l-3 23 -7 -25z"/>
			<path d="M6460 2740 c0 -19 3 -21 12 -12 9 9 9 15 0 24 -9 9 -12 7 -12 -12z"/>
			<path d="M6493 2705 c-3 -9 -3 -18 -1 -21 3 -3 8 4 11 16 6 23 -1 27 -10 5z"/>
			<path d="M6753 2705 c-9 -10 -10 -21 -3 -40 13 -34 15 -32 15 15 0 22 0 40 0
			40 0 -1 -6 -7 -12 -15z"/>
			<path d="M6466 2631 c-4 -7 -5 -15 -2 -18 9 -9 19 4 14 18 -4 11 -6 11 -12 0z"/>
			<path d="M6730 2555 c-7 -9 -11 -17 -9 -20 3 -2 10 5 17 15 14 24 10 26 -8 5z"/>
			<path d="M5648 2508 c-26 -54 -99 -140 -114 -134 -8 3 -14 1 -14 -4 0 -10
			-163 -157 -260 -235 -72 -57 -205 -147 -232 -158 -19 -7 -25 -27 -8 -27 15 0
			109 59 177 112 35 26 68 48 74 48 27 0 207 152 284 240 56 63 134 190 116 190
			-4 0 -14 -15 -23 -32z"/>
			<path d="M6481 2514 c0 -11 3 -14 6 -6 3 7 2 16 -1 19 -3 4 -6 -2 -5 -13z"/>
			<path d="M6710 2498 c0 -9 -3 -18 -7 -20 -12 -5 -65 -110 -59 -116 3 -3 6 1 6
			9 0 12 2 11 11 -1 9 -12 10 -11 6 8 -3 12 -2 22 2 22 10 0 55 100 47 107 -3 3
			-6 -1 -6 -9z"/>
			<path d="M5821 2331 c-9 -6 -4 -10 16 -14 34 -6 41 -2 16 11 -11 6 -25 7 -32
			3z"/>
			<path d="M5951 2241 c-18 -27 -39 -55 -46 -61 -8 -7 -12 -16 -9 -21 8 -14 24
			-10 24 6 0 8 6 15 13 15 19 0 72 89 60 101 -7 7 -21 -7 -42 -40z"/>
			<path d="M6357 2283 c-11 -11 -8 -20 7 -20 8 0 12 6 9 14 -6 15 -7 15 -16 6z"/>
			<path d="M6456 2205 c-3 -9 -6 -22 -5 -28 0 -7 5 -1 10 12 5 13 8 26 5 28 -2
			2 -6 -3 -10 -12z"/>
			<path d="M6287 2184 c-12 -13 -8 -22 10 -20 9 2 19 9 21 17 3 12 2 12 -6 0 -7
			-9 -11 -10 -13 -2 -3 7 -8 9 -12 5z"/>
			<path d="M6243 2062 c-8 -5 -8 -12 2 -25 12 -17 13 -16 11 7 0 15 -1 26 -1 26
			0 0 -5 -4 -12 -8z"/>
			<path d="M6190 2040 c0 -5 5 -10 11 -10 5 0 7 5 4 10 -3 6 -8 10 -11 10 -2 0
			-4 -4 -4 -10z"/>
			<path d="M6161 1988 c-14 -23 -14 -23 8 -4 22 20 25 26 13 26 -4 0 -13 -10
			-21 -22z"/>
			<path d="M6440 1979 c0 -11 4 -18 10 -14 5 3 7 12 3 20 -7 21 -13 19 -13 -6z"/>
			<path d="M6020 1975 c-7 -9 -11 -17 -9 -20 3 -2 10 5 17 15 14 24 10 26 -8 5z"/>
			<path d="M6272 1958 c2 -6 10 -14 16 -16 7 -2 10 2 6 12 -7 18 -28 22 -22 4z"/>
			<path d="M6052 1928 c-7 -7 -12 -17 -12 -22 0 -6 5 -3 11 7 10 17 12 17 29 -2
			15 -18 19 -19 29 -7 9 10 9 16 1 21 -6 4 -14 4 -17 1 -3 -3 -11 -1 -18 4 -7 6
			-16 5 -23 -2z"/>
			<path d="M5980 1855 c-13 -14 -22 -26 -19 -28 2 -1 16 10 31 25 15 15 23 28
			19 28 -4 0 -18 -11 -31 -25z"/>
			<path d="M6070 1840 c-6 -11 -8 -20 -6 -20 3 0 10 9 16 20 6 11 8 20 6 20 -3
			0 -10 -9 -16 -20z"/>
			<path d="M6003 1835 c0 -8 4 -12 9 -9 5 3 6 10 3 15 -9 13 -12 11 -12 -6z"/>
			<path d="M5686 1805 c-9 -26 -7 -32 5 -12 6 10 9 21 6 23 -2 3 -7 -2 -11 -11z"/>
			<path d="M5637 1792 c-21 -23 -21 -32 -3 -32 20 0 41 29 29 41 -6 6 -15 3 -26
			-9z"/>
			<path d="M5713 1756 c-13 -6 -23 -14 -23 -18 0 -14 17 -9 41 12 26 21 17 24
			-18 6z"/>
			<path d="M6202 1735 c-7 -14 -12 -35 -12 -45 0 -11 -4 -20 -9 -20 -5 0 -11 -7
			-14 -14 -4 -9 -1 -13 6 -10 11 4 57 92 57 108 0 16 -18 3 -28 -19z"/>
			<path d="M5815 1719 c-16 -16 -25 -29 -18 -29 13 0 53 39 53 52 0 11 -1 10
			-35 -23z"/>
			<path d="M5422 1603 c-13 -5 -7 -23 9 -23 6 0 8 4 5 9 -4 5 0 12 6 14 7 3 9 5
			3 5 -5 0 -16 -2 -23 -5z"/>
			<path d="M5238 1493 c7 -3 16 -2 19 1 4 3 -2 6 -13 5 -11 0 -14 -3 -6 -6z"/>
			<path d="M5030 1480 c-18 -12 -2 -12 25 0 13 6 15 9 5 9 -8 0 -22 -4 -30 -9z"/>
			<path d="M4995 1470 c-3 -5 -1 -10 4 -10 6 0 11 5 11 10 0 6 -2 10 -4 10 -3 0
			-8 -4 -11 -10z"/>
			<path d="M5165 1465 c-23 -10 -25 -13 -10 -14 11 0 31 6 45 14 32 18 5 19 -35
			0z"/>
			<path d="M5068 1443 c7 -3 16 -2 19 1 4 3 -2 6 -13 5 -11 0 -14 -3 -6 -6z"/>
			<path d="M4987 1420 c-3 -11 -1 -20 4 -20 5 0 9 9 9 20 0 11 -2 20 -4 20 -2 0
			-6 -9 -9 -20z"/>
			<path d="M3120 5100 c0 -5 5 -10 11 -10 5 0 7 5 4 10 -3 6 -8 10 -11 10 -2 0
			-4 -4 -4 -10z"/>
			<path d="M3600 4984 c0 -2 12 -10 28 -18 15 -9 21 -16 12 -16 -8 0 -1 -7 17
			-15 17 -7 41 -11 52 -8 28 7 17 22 -12 16 -14 -3 -18 -2 -9 4 8 6 -3 14 -38
			25 -27 9 -50 14 -50 12z"/>
			<path d="M3390 5232 c0 -5 7 -15 15 -22 8 -7 15 -9 15 -6 0 4 -7 14 -15 22 -8
			9 -15 11 -15 6z"/>
			<path d="M4258 4963 c7 -3 16 -2 19 1 4 3 -2 6 -13 5 -11 0 -14 -3 -6 -6z"/>
			<path d="M2640 5122 c0 -5 7 -15 15 -22 8 -7 15 -9 15 -6 0 4 -7 14 -15 22 -8
			9 -15 11 -15 6z"/>
			<path d="M4368 5163 c7 -3 16 -2 19 1 4 3 -2 6 -13 5 -11 0 -14 -3 -6 -6z"/>
			<path d="M4055 3900 c3 -5 8 -10 11 -10 2 0 4 5 4 10 0 6 -5 10 -11 10 -5 0
			-7 -4 -4 -10z"/>
			<path d="M3883 3483 c-18 -7 -16 -23 2 -23 9 0 27 -11 40 -25 14 -13 25 -20
			25 -15 0 5 10 10 23 12 16 2 22 10 22 28 0 22 -4 25 -50 26 -27 1 -56 0 -62
			-3z"/>
			<path d="M3335 3180 c3 -5 0 -10 -7 -10 -8 0 -6 -5 5 -11 9 -5 22 -7 27 -4 6
			3 10 2 10 -3 0 -6 18 -17 39 -25 22 -9 42 -21 46 -27 3 -5 16 -10 28 -10 14 0
			-3 14 -50 40 -39 22 -75 45 -78 50 -3 6 -11 10 -16 10 -6 0 -7 -4 -4 -10z"/>
			<path d="M4120 2900 c-21 -7 -21 -8 -5 -9 11 0 27 4 35 9 18 11 5 11 -30 0z"/>
			<path d="M6911 2684 c0 -11 3 -14 6 -6 3 7 2 16 -1 19 -3 4 -6 -2 -5 -13z"/>
			<path d="M6904 2618 c-1 -21 2 -38 7 -38 5 0 9 6 9 14 0 7 7 19 15 26 22 18
			18 35 -8 35 -19 0 -23 -5 -23 -37z"/>
			<path d="M4230 2449 c0 -5 5 -7 10 -4 6 3 10 8 10 11 0 2 -4 4 -10 4 -5 0 -10
			-5 -10 -11z"/>
			<path d="M1041 2344 c0 -11 3 -14 6 -6 3 7 2 16 -1 19 -3 4 -6 -2 -5 -13z"/>
			<path d="M811 2320 c0 -8 4 -22 9 -30 12 -18 12 -2 0 25 -6 13 -9 15 -9 5z"/>
			<path d="M841 2254 c0 -11 3 -14 6 -6 3 7 2 16 -1 19 -3 4 -6 -2 -5 -13z"/>
			<path d="M4247 1780 c-3 -11 -1 -20 4 -20 5 0 9 9 9 20 0 11 -2 20 -4 20 -2 0
			-6 -9 -9 -20z"/>
			<path d="M6607 1704 c-14 -19 -15 -22 -2 -18 8 3 15 11 15 18 0 6 5 4 10 -4 5
			-8 10 -10 10 -5 0 27 -16 32 -33 9z"/>
			<path d="M6530 1621 c0 -5 7 -11 14 -14 10 -4 13 -1 9 9 -6 15 -23 19 -23 5z"/>
			<path d="M6306 1391 c-13 -14 -14 -21 -5 -27 7 -4 10 -3 6 3 -4 6 0 14 8 17
			12 4 14 -1 10 -27 -5 -25 -4 -29 6 -20 18 18 20 44 4 59 -10 11 -16 10 -29 -5z"/>
			<path d="M6175 1280 c-3 -5 -2 -10 4 -10 5 0 13 5 16 10 3 6 2 10 -4 10 -5 0
			-13 -4 -16 -10z"/>
			<path d="M6090 1200 c0 -5 5 -10 10 -10 6 0 10 5 10 10 0 6 -4 10 -10 10 -5 0
			-10 -4 -10 -10z"/>
			<path d="M1615 1280 c-3 -5 -1 -10 4 -10 6 0 11 5 11 10 0 6 -2 10 -4 10 -3 0
			-8 -4 -11 -10z"/>
			<path d="M6025 1310 c-3 -5 1 -10 9 -10 9 0 16 5 16 10 0 6 -4 10 -9 10 -6 0
			-13 -4 -16 -10z"/>
			<path d="M6006 1264 c-5 -14 -4 -15 9 -4 17 14 19 20 6 20 -5 0 -12 -7 -15
			-16z"/>
			<path d="M6070 1119 c0 -5 5 -7 10 -4 6 3 10 8 10 11 0 2 -4 4 -10 4 -5 0 -10
			-5 -10 -11z"/>
		</g>
	</symbol>
</svg>